<?xml version="1.0" encoding="UTF-8" standalone="no"?><svg xmlns="http://www.w3.org/2000/svg" xmlns:xlink="http://www.w3.org/1999/xlink" contentStyleType="text/css" height="663px" preserveAspectRatio="none" style="width:1591px;height:663px;background:#FFFFFF;" version="1.1" viewBox="0 0 1591 663" width="1591px" zoomAndPan="magnify"><defs/><g><!--class Questao--><g id="elem_Questao"><rect codeLine="1" fill="#F1F1F1" height="178.375" id="Questao" rx="2.5" ry="2.5" style="stroke:#181818;stroke-width:0.5;" width="231" x="829" y="213"/><ellipse cx="910.75" cy="229" fill="#A9DCDF" rx="11" ry="11" style="stroke:#181818;stroke-width:1.0;"/><path d="M912.8281,230.8125 L913.2188,231.7969 L912.8281,231.7969 C912.375,231.7969 912.2656,231.8125 912.1094,231.9219 C911.8594,232.0781 911.7031,232.3594 911.7031,232.6563 C911.7031,232.9219 911.8438,233.1719 912.0625,233.3281 C912.2031,233.4531 912.4063,233.5 912.8281,233.5 L915.1875,233.5 C915.5469,233.5 915.7656,233.4688 915.9063,233.375 C916.1563,233.2344 916.3125,232.9375 916.3125,232.6563 C916.3125,232.375 916.1719,232.125 915.9531,231.9688 C915.7813,231.8281 915.625,231.7969 915.1563,231.7969 L911.7656,223.5938 L908.0938,223.5938 C907.6406,223.5938 907.5156,223.6094 907.3594,223.7031 C907.1094,223.875 906.9531,224.1563 906.9531,224.4375 C906.9531,224.7188 907.0938,224.9688 907.3125,225.1406 C907.4844,225.25 907.6563,225.2813 908.0938,225.2813 L909.1719,225.2813 L906.5313,231.7969 C906.1094,231.7969 905.9531,231.8125 905.7969,231.9219 C905.5469,232.0781 905.3906,232.3594 905.3906,232.6563 C905.3906,233.2188 905.7656,233.5 906.5156,233.5 L908.7813,233.5 C909.1406,233.5 909.3594,233.4688 909.4844,233.375 C909.75,233.2344 909.8906,232.9375 909.8906,232.6563 C909.8906,232.375 909.7656,232.125 909.5469,231.9531 C909.375,231.8281 909.2344,231.7969 908.7813,231.7969 L908.3906,231.7969 L908.7813,230.8125 L912.8281,230.8125 Z M912.125,229.1094 L909.4531,229.1094 L910.7969,225.8438 L912.125,229.1094 Z " fill="#000000"/><text fill="#000000" font-family="sans-serif" font-size="14" font-style="italic" lengthAdjust="spacing" textLength="59" x="931.25" y="233.8467">Questao</text><line style="stroke:#181818;stroke-width:0.5;" x1="830" x2="1059" y1="245" y2="245"/><ellipse cx="840" cy="258.6484" fill="none" rx="3" ry="3" style="stroke:#038048;stroke-width:1.0;"/><text fill="#000000" font-family="sans-serif" font-size="14" lengthAdjust="spacing" textLength="135" x="849" y="261.9951">Pergunta pergunta</text><ellipse cx="840" cy="274.9453" fill="none" rx="3" ry="3" style="stroke:#038048;stroke-width:1.0;"/><text fill="#000000" font-family="sans-serif" font-size="14" lengthAdjust="spacing" textLength="82" x="849" y="278.292">Tema tema</text><ellipse cx="840" cy="291.2422" fill="none" rx="3" ry="3" style="stroke:#038048;stroke-width:1.0;"/><text fill="#000000" font-family="sans-serif" font-size="14" lengthAdjust="spacing" textLength="162" x="849" y="294.5889">Dificuldade dificuldade</text><ellipse cx="840" cy="307.5391" fill="none" rx="3" ry="3" style="stroke:#038048;stroke-width:1.0;"/><text fill="#000000" font-family="sans-serif" font-size="14" lengthAdjust="spacing" textLength="111" x="849" y="310.8857">Real pontuacao</text><ellipse cx="840" cy="323.8359" fill="none" rx="3" ry="3" style="stroke:#038048;stroke-width:1.0;"/><text fill="#000000" font-family="sans-serif" font-size="14" lengthAdjust="spacing" textLength="205" x="849" y="327.1826">Lista&lt; Resposta &gt; respostas</text><ellipse cx="840" cy="340.1328" fill="none" rx="3" ry="3" style="stroke:#038048;stroke-width:1.0;"/><text fill="#000000" font-family="sans-serif" font-size="14" lengthAdjust="spacing" textLength="158" x="849" y="343.4795">Inteiro tempomaximo</text><ellipse cx="840" cy="356.4297" fill="none" rx="3" ry="3" style="stroke:#038048;stroke-width:1.0;"/><text fill="#000000" font-family="sans-serif" font-size="14" lengthAdjust="spacing" textLength="78" x="849" y="359.7764">String tipo</text><ellipse cx="840" cy="372.7266" fill="none" rx="3" ry="3" style="stroke:#038048;stroke-width:1.0;"/><text fill="#000000" font-family="sans-serif" font-size="14" lengthAdjust="spacing" textLength="177" x="849" y="376.0732">Repsosta reespostadada</text><line style="stroke:#181818;stroke-width:0.5;" x1="830" x2="1059" y1="383.375" y2="383.375"/></g><!--class Questao:EscolhaMultipla--><g id="elem_Questao:EscolhaMultipla"><rect codeLine="12" fill="#F1F1F1" height="48" id="Questao:EscolhaMultipla" rx="2.5" ry="2.5" style="stroke:#181818;stroke-width:0.5;" width="207" x="989" y="475.5"/><ellipse cx="1004" cy="491.5" fill="#ADD1B2" rx="11" ry="11" style="stroke:#181818;stroke-width:1.0;"/><path d="M1006.3438,487.1719 C1005.4063,486.7344 1004.8125,486.5938 1003.9375,486.5938 C1001.3125,486.5938 999.3125,488.6719 999.3125,491.3906 L999.3125,492.5156 C999.3125,495.0938 1001.4219,496.9844 1004.3125,496.9844 C1005.5313,496.9844 1006.6875,496.6875 1007.4375,496.1406 C1008.0156,495.7344 1008.3438,495.2813 1008.3438,494.8906 C1008.3438,494.4375 1007.9531,494.0469 1007.4844,494.0469 C1007.2656,494.0469 1007.0625,494.125 1006.875,494.3125 C1006.4219,494.7969 1006.4219,494.7969 1006.2344,494.8906 C1005.8125,495.1563 1005.125,495.2813 1004.3594,495.2813 C1002.3125,495.2813 1001.0156,494.1875 1001.0156,492.4844 L1001.0156,491.3906 C1001.0156,489.6094 1002.2656,488.2969 1004,488.2969 C1004.5781,488.2969 1005.1875,488.4531 1005.6563,488.7031 C1006.1406,488.9844 1006.3125,489.2031 1006.4063,489.6094 C1006.4688,490.0156 1006.5,490.1406 1006.6406,490.2656 C1006.7813,490.4063 1007.0156,490.5156 1007.2344,490.5156 C1007.5,490.5156 1007.7656,490.375 1007.9375,490.1563 C1008.0469,490 1008.0781,489.8125 1008.0781,489.3906 L1008.0781,487.9688 C1008.0781,487.5313 1008.0625,487.4063 1007.9688,487.25 C1007.8125,486.9844 1007.5313,486.8438 1007.2344,486.8438 C1006.9375,486.8438 1006.7344,486.9375 1006.5156,487.25 L1006.3438,487.1719 Z " fill="#000000"/><text fill="#000000" font-family="sans-serif" font-size="14" lengthAdjust="spacing" textLength="175" x="1018" y="496.3467">Questao:EscolhaMultipla</text><line style="stroke:#181818;stroke-width:0.5;" x1="990" x2="1195" y1="507.5" y2="507.5"/><line style="stroke:#181818;stroke-width:0.5;" x1="990" x2="1195" y1="515.5" y2="515.5"/></g><!--class Questao:VerdadeiroFalso--><g id="elem_Questao:VerdadeiroFalso"><rect codeLine="15" fill="#F1F1F1" height="48" id="Questao:VerdadeiroFalso" rx="2.5" ry="2.5" style="stroke:#181818;stroke-width:0.5;" width="211" x="7" y="475.5"/><ellipse cx="22" cy="491.5" fill="#ADD1B2" rx="11" ry="11" style="stroke:#181818;stroke-width:1.0;"/><path d="M24.3438,487.1719 C23.4063,486.7344 22.8125,486.5938 21.9375,486.5938 C19.3125,486.5938 17.3125,488.6719 17.3125,491.3906 L17.3125,492.5156 C17.3125,495.0938 19.4219,496.9844 22.3125,496.9844 C23.5313,496.9844 24.6875,496.6875 25.4375,496.1406 C26.0156,495.7344 26.3438,495.2813 26.3438,494.8906 C26.3438,494.4375 25.9531,494.0469 25.4844,494.0469 C25.2656,494.0469 25.0625,494.125 24.875,494.3125 C24.4219,494.7969 24.4219,494.7969 24.2344,494.8906 C23.8125,495.1563 23.125,495.2813 22.3594,495.2813 C20.3125,495.2813 19.0156,494.1875 19.0156,492.4844 L19.0156,491.3906 C19.0156,489.6094 20.2656,488.2969 22,488.2969 C22.5781,488.2969 23.1875,488.4531 23.6563,488.7031 C24.1406,488.9844 24.3125,489.2031 24.4063,489.6094 C24.4688,490.0156 24.5,490.1406 24.6406,490.2656 C24.7813,490.4063 25.0156,490.5156 25.2344,490.5156 C25.5,490.5156 25.7656,490.375 25.9375,490.1563 C26.0469,490 26.0781,489.8125 26.0781,489.3906 L26.0781,487.9688 C26.0781,487.5313 26.0625,487.4063 25.9688,487.25 C25.8125,486.9844 25.5313,486.8438 25.2344,486.8438 C24.9375,486.8438 24.7344,486.9375 24.5156,487.25 L24.3438,487.1719 Z " fill="#000000"/><text fill="#000000" font-family="sans-serif" font-size="14" lengthAdjust="spacing" textLength="179" x="36" y="496.3467">Questao:VerdadeiroFalso</text><line style="stroke:#181818;stroke-width:0.5;" x1="8" x2="217" y1="507.5" y2="507.5"/><line style="stroke:#181818;stroke-width:0.5;" x1="8" x2="217" y1="515.5" y2="515.5"/></g><!--class Questao:CurtaTextual--><g id="elem_Questao:CurtaTextual"><rect codeLine="18" fill="#F1F1F1" height="48" id="Questao:CurtaTextual" rx="2.5" ry="2.5" style="stroke:#181818;stroke-width:0.5;" width="188" x="253.5" y="475.5"/><ellipse cx="268.5" cy="491.5" fill="#ADD1B2" rx="11" ry="11" style="stroke:#181818;stroke-width:1.0;"/><path d="M270.8438,487.1719 C269.9063,486.7344 269.3125,486.5938 268.4375,486.5938 C265.8125,486.5938 263.8125,488.6719 263.8125,491.3906 L263.8125,492.5156 C263.8125,495.0938 265.9219,496.9844 268.8125,496.9844 C270.0313,496.9844 271.1875,496.6875 271.9375,496.1406 C272.5156,495.7344 272.8438,495.2813 272.8438,494.8906 C272.8438,494.4375 272.4531,494.0469 271.9844,494.0469 C271.7656,494.0469 271.5625,494.125 271.375,494.3125 C270.9219,494.7969 270.9219,494.7969 270.7344,494.8906 C270.3125,495.1563 269.625,495.2813 268.8594,495.2813 C266.8125,495.2813 265.5156,494.1875 265.5156,492.4844 L265.5156,491.3906 C265.5156,489.6094 266.7656,488.2969 268.5,488.2969 C269.0781,488.2969 269.6875,488.4531 270.1563,488.7031 C270.6406,488.9844 270.8125,489.2031 270.9063,489.6094 C270.9688,490.0156 271,490.1406 271.1406,490.2656 C271.2813,490.4063 271.5156,490.5156 271.7344,490.5156 C272,490.5156 272.2656,490.375 272.4375,490.1563 C272.5469,490 272.5781,489.8125 272.5781,489.3906 L272.5781,487.9688 C272.5781,487.5313 272.5625,487.4063 272.4688,487.25 C272.3125,486.9844 272.0313,486.8438 271.7344,486.8438 C271.4375,486.8438 271.2344,486.9375 271.0156,487.25 L270.8438,487.1719 Z " fill="#000000"/><text fill="#000000" font-family="sans-serif" font-size="14" lengthAdjust="spacing" textLength="156" x="282.5" y="496.3467">Questao:CurtaTextual</text><line style="stroke:#181818;stroke-width:0.5;" x1="254.5" x2="440.5" y1="507.5" y2="507.5"/><line style="stroke:#181818;stroke-width:0.5;" x1="254.5" x2="440.5" y1="515.5" y2="515.5"/></g><!--class Questao:LongaTextual--><g id="elem_Questao:LongaTextual"><rect codeLine="21" fill="#F1F1F1" height="80.5938" id="Questao:LongaTextual" rx="2.5" ry="2.5" style="stroke:#181818;stroke-width:0.5;" width="305" x="477" y="459"/><ellipse cx="545.25" cy="475" fill="#ADD1B2" rx="11" ry="11" style="stroke:#181818;stroke-width:1.0;"/><path d="M547.5938,470.6719 C546.6563,470.2344 546.0625,470.0938 545.1875,470.0938 C542.5625,470.0938 540.5625,472.1719 540.5625,474.8906 L540.5625,476.0156 C540.5625,478.5938 542.6719,480.4844 545.5625,480.4844 C546.7813,480.4844 547.9375,480.1875 548.6875,479.6406 C549.2656,479.2344 549.5938,478.7813 549.5938,478.3906 C549.5938,477.9375 549.2031,477.5469 548.7344,477.5469 C548.5156,477.5469 548.3125,477.625 548.125,477.8125 C547.6719,478.2969 547.6719,478.2969 547.4844,478.3906 C547.0625,478.6563 546.375,478.7813 545.6094,478.7813 C543.5625,478.7813 542.2656,477.6875 542.2656,475.9844 L542.2656,474.8906 C542.2656,473.1094 543.5156,471.7969 545.25,471.7969 C545.8281,471.7969 546.4375,471.9531 546.9063,472.2031 C547.3906,472.4844 547.5625,472.7031 547.6563,473.1094 C547.7188,473.5156 547.75,473.6406 547.8906,473.7656 C548.0313,473.9063 548.2656,474.0156 548.4844,474.0156 C548.75,474.0156 549.0156,473.875 549.1875,473.6563 C549.2969,473.5 549.3281,473.3125 549.3281,472.8906 L549.3281,471.4688 C549.3281,471.0313 549.3125,470.9063 549.2188,470.75 C549.0625,470.4844 548.7813,470.3438 548.4844,470.3438 C548.1875,470.3438 547.9844,470.4375 547.7656,470.75 L547.5938,470.6719 Z " fill="#000000"/><text fill="#000000" font-family="sans-serif" font-size="14" lengthAdjust="spacing" textLength="160" x="565.75" y="479.8467">Questao:LongaTextual</text><line style="stroke:#181818;stroke-width:0.5;" x1="478" x2="781" y1="491" y2="491"/><rect fill="none" height="6" style="stroke:#C82930;stroke-width:1.0;" width="6" x="485" y="501.6484"/><text fill="#000000" font-family="sans-serif" font-size="14" lengthAdjust="spacing" textLength="279" x="497" y="507.9951">Lista&lt; Resposta &gt; respostas nao tem!!</text><rect fill="none" height="6" style="stroke:#C82930;stroke-width:1.0;" width="6" x="485" y="517.9453"/><text fill="#000000" font-family="sans-serif" font-size="14" lengthAdjust="spacing" textLength="185" x="497" y="524.292">Real pontuacao nao tem!!</text><line style="stroke:#181818;stroke-width:0.5;" x1="478" x2="781" y1="531.5938" y2="531.5938"/></g><!--class Resposta--><g id="elem_Resposta"><rect codeLine="32" fill="#F1F1F1" height="64.2969" id="Resposta" rx="2.5" ry="2.5" style="stroke:#181818;stroke-width:0.5;" width="137" x="817" y="467.5"/><ellipse cx="850" cy="483.5" fill="#A9DCDF" rx="11" ry="11" style="stroke:#181818;stroke-width:1.0;"/><path d="M852.0781,485.3125 L852.4688,486.2969 L852.0781,486.2969 C851.625,486.2969 851.5156,486.3125 851.3594,486.4219 C851.1094,486.5781 850.9531,486.8594 850.9531,487.1563 C850.9531,487.4219 851.0938,487.6719 851.3125,487.8281 C851.4531,487.9531 851.6563,488 852.0781,488 L854.4375,488 C854.7969,488 855.0156,487.9688 855.1563,487.875 C855.4063,487.7344 855.5625,487.4375 855.5625,487.1563 C855.5625,486.875 855.4219,486.625 855.2031,486.4688 C855.0313,486.3281 854.875,486.2969 854.4063,486.2969 L851.0156,478.0938 L847.3438,478.0938 C846.8906,478.0938 846.7656,478.1094 846.6094,478.2031 C846.3594,478.375 846.2031,478.6563 846.2031,478.9375 C846.2031,479.2188 846.3438,479.4688 846.5625,479.6406 C846.7344,479.75 846.9063,479.7813 847.3438,479.7813 L848.4219,479.7813 L845.7813,486.2969 C845.3594,486.2969 845.2031,486.3125 845.0469,486.4219 C844.7969,486.5781 844.6406,486.8594 844.6406,487.1563 C844.6406,487.7188 845.0156,488 845.7656,488 L848.0313,488 C848.3906,488 848.6094,487.9688 848.7344,487.875 C849,487.7344 849.1406,487.4375 849.1406,487.1563 C849.1406,486.875 849.0156,486.625 848.7969,486.4531 C848.625,486.3281 848.4844,486.2969 848.0313,486.2969 L847.6406,486.2969 L848.0313,485.3125 L852.0781,485.3125 Z M851.375,483.6094 L848.7031,483.6094 L850.0469,480.3438 L851.375,483.6094 Z " fill="#000000"/><text fill="#000000" font-family="sans-serif" font-size="14" font-style="italic" lengthAdjust="spacing" textLength="65" x="868" y="488.3467">Resposta</text><line style="stroke:#181818;stroke-width:0.5;" x1="818" x2="953" y1="499.5" y2="499.5"/><ellipse cx="828" cy="513.1484" fill="none" rx="3" ry="3" style="stroke:#038048;stroke-width:1.0;"/><text fill="#000000" font-family="sans-serif" font-size="14" lengthAdjust="spacing" textLength="111" x="837" y="516.4951">Real pontuacao</text><line style="stroke:#181818;stroke-width:0.5;" x1="818" x2="953" y1="523.7969" y2="523.7969"/></g><!--class Resposta:EscolhaMultipla--><g id="elem_Resposta:EscolhaMultipla"><rect codeLine="36" fill="#F1F1F1" height="48" id="Resposta:EscolhaMultipla" rx="2.5" ry="2.5" style="stroke:#181818;stroke-width:0.5;" width="215" x="405" y="608"/><ellipse cx="420" cy="624" fill="#ADD1B2" rx="11" ry="11" style="stroke:#181818;stroke-width:1.0;"/><path d="M422.3438,619.6719 C421.4063,619.2344 420.8125,619.0938 419.9375,619.0938 C417.3125,619.0938 415.3125,621.1719 415.3125,623.8906 L415.3125,625.0156 C415.3125,627.5938 417.4219,629.4844 420.3125,629.4844 C421.5313,629.4844 422.6875,629.1875 423.4375,628.6406 C424.0156,628.2344 424.3438,627.7813 424.3438,627.3906 C424.3438,626.9375 423.9531,626.5469 423.4844,626.5469 C423.2656,626.5469 423.0625,626.625 422.875,626.8125 C422.4219,627.2969 422.4219,627.2969 422.2344,627.3906 C421.8125,627.6563 421.125,627.7813 420.3594,627.7813 C418.3125,627.7813 417.0156,626.6875 417.0156,624.9844 L417.0156,623.8906 C417.0156,622.1094 418.2656,620.7969 420,620.7969 C420.5781,620.7969 421.1875,620.9531 421.6563,621.2031 C422.1406,621.4844 422.3125,621.7031 422.4063,622.1094 C422.4688,622.5156 422.5,622.6406 422.6406,622.7656 C422.7813,622.9063 423.0156,623.0156 423.2344,623.0156 C423.5,623.0156 423.7656,622.875 423.9375,622.6563 C424.0469,622.5 424.0781,622.3125 424.0781,621.8906 L424.0781,620.4688 C424.0781,620.0313 424.0625,619.9063 423.9688,619.75 C423.8125,619.4844 423.5313,619.3438 423.2344,619.3438 C422.9375,619.3438 422.7344,619.4375 422.5156,619.75 L422.3438,619.6719 Z " fill="#000000"/><text fill="#000000" font-family="sans-serif" font-size="14" lengthAdjust="spacing" textLength="183" x="434" y="628.8467">Resposta:EscolhaMultipla</text><line style="stroke:#181818;stroke-width:0.5;" x1="406" x2="619" y1="640" y2="640"/><line style="stroke:#181818;stroke-width:0.5;" x1="406" x2="619" y1="648" y2="648"/></g><!--class Resposta:VerdadeiroFalso--><g id="elem_Resposta:VerdadeiroFalso"><rect codeLine="38" fill="#F1F1F1" height="48" id="Resposta:VerdadeiroFalso" rx="2.5" ry="2.5" style="stroke:#181818;stroke-width:0.5;" width="219" x="655" y="608"/><ellipse cx="670" cy="624" fill="#ADD1B2" rx="11" ry="11" style="stroke:#181818;stroke-width:1.0;"/><path d="M672.3438,619.6719 C671.4063,619.2344 670.8125,619.0938 669.9375,619.0938 C667.3125,619.0938 665.3125,621.1719 665.3125,623.8906 L665.3125,625.0156 C665.3125,627.5938 667.4219,629.4844 670.3125,629.4844 C671.5313,629.4844 672.6875,629.1875 673.4375,628.6406 C674.0156,628.2344 674.3438,627.7813 674.3438,627.3906 C674.3438,626.9375 673.9531,626.5469 673.4844,626.5469 C673.2656,626.5469 673.0625,626.625 672.875,626.8125 C672.4219,627.2969 672.4219,627.2969 672.2344,627.3906 C671.8125,627.6563 671.125,627.7813 670.3594,627.7813 C668.3125,627.7813 667.0156,626.6875 667.0156,624.9844 L667.0156,623.8906 C667.0156,622.1094 668.2656,620.7969 670,620.7969 C670.5781,620.7969 671.1875,620.9531 671.6563,621.2031 C672.1406,621.4844 672.3125,621.7031 672.4063,622.1094 C672.4688,622.5156 672.5,622.6406 672.6406,622.7656 C672.7813,622.9063 673.0156,623.0156 673.2344,623.0156 C673.5,623.0156 673.7656,622.875 673.9375,622.6563 C674.0469,622.5 674.0781,622.3125 674.0781,621.8906 L674.0781,620.4688 C674.0781,620.0313 674.0625,619.9063 673.9688,619.75 C673.8125,619.4844 673.5313,619.3438 673.2344,619.3438 C672.9375,619.3438 672.7344,619.4375 672.5156,619.75 L672.3438,619.6719 Z " fill="#000000"/><text fill="#000000" font-family="sans-serif" font-size="14" lengthAdjust="spacing" textLength="187" x="684" y="628.8467">Resposta:VerdadeiroFalso</text><line style="stroke:#181818;stroke-width:0.5;" x1="656" x2="873" y1="640" y2="640"/><line style="stroke:#181818;stroke-width:0.5;" x1="656" x2="873" y1="648" y2="648"/></g><!--class Resposta:CurtaTextual--><g id="elem_Resposta:CurtaTextual"><rect codeLine="40" fill="#F1F1F1" height="48" id="Resposta:CurtaTextual" rx="2.5" ry="2.5" style="stroke:#181818;stroke-width:0.5;" width="196" x="909.5" y="608"/><ellipse cx="924.5" cy="624" fill="#ADD1B2" rx="11" ry="11" style="stroke:#181818;stroke-width:1.0;"/><path d="M926.8438,619.6719 C925.9063,619.2344 925.3125,619.0938 924.4375,619.0938 C921.8125,619.0938 919.8125,621.1719 919.8125,623.8906 L919.8125,625.0156 C919.8125,627.5938 921.9219,629.4844 924.8125,629.4844 C926.0313,629.4844 927.1875,629.1875 927.9375,628.6406 C928.5156,628.2344 928.8438,627.7813 928.8438,627.3906 C928.8438,626.9375 928.4531,626.5469 927.9844,626.5469 C927.7656,626.5469 927.5625,626.625 927.375,626.8125 C926.9219,627.2969 926.9219,627.2969 926.7344,627.3906 C926.3125,627.6563 925.625,627.7813 924.8594,627.7813 C922.8125,627.7813 921.5156,626.6875 921.5156,624.9844 L921.5156,623.8906 C921.5156,622.1094 922.7656,620.7969 924.5,620.7969 C925.0781,620.7969 925.6875,620.9531 926.1563,621.2031 C926.6406,621.4844 926.8125,621.7031 926.9063,622.1094 C926.9688,622.5156 927,622.6406 927.1406,622.7656 C927.2813,622.9063 927.5156,623.0156 927.7344,623.0156 C928,623.0156 928.2656,622.875 928.4375,622.6563 C928.5469,622.5 928.5781,622.3125 928.5781,621.8906 L928.5781,620.4688 C928.5781,620.0313 928.5625,619.9063 928.4688,619.75 C928.3125,619.4844 928.0313,619.3438 927.7344,619.3438 C927.4375,619.3438 927.2344,619.4375 927.0156,619.75 L926.8438,619.6719 Z " fill="#000000"/><text fill="#000000" font-family="sans-serif" font-size="14" lengthAdjust="spacing" textLength="164" x="938.5" y="628.8467">Resposta:CurtaTextual</text><line style="stroke:#181818;stroke-width:0.5;" x1="910.5" x2="1104.5" y1="640" y2="640"/><line style="stroke:#181818;stroke-width:0.5;" x1="910.5" x2="1104.5" y1="648" y2="648"/></g><!--class Resposta:LongaTextual--><g id="elem_Resposta:LongaTextual"><rect codeLine="42" fill="#F1F1F1" height="48" id="Resposta:LongaTextual" rx="2.5" ry="2.5" style="stroke:#181818;stroke-width:0.5;" width="200" x="1140.5" y="608"/><ellipse cx="1155.5" cy="624" fill="#ADD1B2" rx="11" ry="11" style="stroke:#181818;stroke-width:1.0;"/><path d="M1157.8438,619.6719 C1156.9063,619.2344 1156.3125,619.0938 1155.4375,619.0938 C1152.8125,619.0938 1150.8125,621.1719 1150.8125,623.8906 L1150.8125,625.0156 C1150.8125,627.5938 1152.9219,629.4844 1155.8125,629.4844 C1157.0313,629.4844 1158.1875,629.1875 1158.9375,628.6406 C1159.5156,628.2344 1159.8438,627.7813 1159.8438,627.3906 C1159.8438,626.9375 1159.4531,626.5469 1158.9844,626.5469 C1158.7656,626.5469 1158.5625,626.625 1158.375,626.8125 C1157.9219,627.2969 1157.9219,627.2969 1157.7344,627.3906 C1157.3125,627.6563 1156.625,627.7813 1155.8594,627.7813 C1153.8125,627.7813 1152.5156,626.6875 1152.5156,624.9844 L1152.5156,623.8906 C1152.5156,622.1094 1153.7656,620.7969 1155.5,620.7969 C1156.0781,620.7969 1156.6875,620.9531 1157.1563,621.2031 C1157.6406,621.4844 1157.8125,621.7031 1157.9063,622.1094 C1157.9688,622.5156 1158,622.6406 1158.1406,622.7656 C1158.2813,622.9063 1158.5156,623.0156 1158.7344,623.0156 C1159,623.0156 1159.2656,622.875 1159.4375,622.6563 C1159.5469,622.5 1159.5781,622.3125 1159.5781,621.8906 L1159.5781,620.4688 C1159.5781,620.0313 1159.5625,619.9063 1159.4688,619.75 C1159.3125,619.4844 1159.0313,619.3438 1158.7344,619.3438 C1158.4375,619.3438 1158.2344,619.4375 1158.0156,619.75 L1157.8438,619.6719 Z " fill="#000000"/><text fill="#000000" font-family="sans-serif" font-size="14" lengthAdjust="spacing" textLength="168" x="1169.5" y="628.8467">Resposta:LongaTextual</text><line style="stroke:#181818;stroke-width:0.5;" x1="1141.5" x2="1339.5" y1="640" y2="640"/><line style="stroke:#181818;stroke-width:0.5;" x1="1141.5" x2="1339.5" y1="648" y2="648"/></g><!--class Questionario--><g id="elem_Questionario"><rect codeLine="49" fill="#F1F1F1" height="145.7813" id="Questionario" rx="2.5" ry="2.5" style="stroke:#181818;stroke-width:0.5;" width="225" x="1175" y="7"/><ellipse cx="1237.75" cy="23" fill="#ADD1B2" rx="11" ry="11" style="stroke:#181818;stroke-width:1.0;"/><path d="M1240.0938,18.6719 C1239.1563,18.2344 1238.5625,18.0938 1237.6875,18.0938 C1235.0625,18.0938 1233.0625,20.1719 1233.0625,22.8906 L1233.0625,24.0156 C1233.0625,26.5938 1235.1719,28.4844 1238.0625,28.4844 C1239.2813,28.4844 1240.4375,28.1875 1241.1875,27.6406 C1241.7656,27.2344 1242.0938,26.7813 1242.0938,26.3906 C1242.0938,25.9375 1241.7031,25.5469 1241.2344,25.5469 C1241.0156,25.5469 1240.8125,25.625 1240.625,25.8125 C1240.1719,26.2969 1240.1719,26.2969 1239.9844,26.3906 C1239.5625,26.6563 1238.875,26.7813 1238.1094,26.7813 C1236.0625,26.7813 1234.7656,25.6875 1234.7656,23.9844 L1234.7656,22.8906 C1234.7656,21.1094 1236.0156,19.7969 1237.75,19.7969 C1238.3281,19.7969 1238.9375,19.9531 1239.4063,20.2031 C1239.8906,20.4844 1240.0625,20.7031 1240.1563,21.1094 C1240.2188,21.5156 1240.25,21.6406 1240.3906,21.7656 C1240.5313,21.9063 1240.7656,22.0156 1240.9844,22.0156 C1241.25,22.0156 1241.5156,21.875 1241.6875,21.6563 C1241.7969,21.5 1241.8281,21.3125 1241.8281,20.8906 L1241.8281,19.4688 C1241.8281,19.0313 1241.8125,18.9063 1241.7188,18.75 C1241.5625,18.4844 1241.2813,18.3438 1240.9844,18.3438 C1240.6875,18.3438 1240.4844,18.4375 1240.2656,18.75 L1240.0938,18.6719 Z " fill="#000000"/><text fill="#000000" font-family="sans-serif" font-size="14" lengthAdjust="spacing" textLength="91" x="1258.25" y="27.8467">Questionario</text><line style="stroke:#181818;stroke-width:0.5;" x1="1176" x2="1399" y1="39" y2="39"/><ellipse cx="1186" cy="52.6484" fill="none" rx="3" ry="3" style="stroke:#038048;stroke-width:1.0;"/><text fill="#000000" font-family="sans-serif" font-size="14" lengthAdjust="spacing" textLength="192" x="1195" y="55.9951">Lista&lt; Questao &gt; questoes</text><ellipse cx="1186" cy="68.9453" fill="none" rx="3" ry="3" style="stroke:#038048;stroke-width:1.0;"/><text fill="#000000" font-family="sans-serif" font-size="14" lengthAdjust="spacing" textLength="108" x="1195" y="72.292">Inteiro duracao</text><ellipse cx="1186" cy="85.2422" fill="none" rx="3" ry="3" style="stroke:#038048;stroke-width:1.0;"/><text fill="#000000" font-family="sans-serif" font-size="14" lengthAdjust="spacing" textLength="158" x="1195" y="88.5889">Inteiro tempomaximo</text><ellipse cx="1186" cy="101.5391" fill="none" rx="3" ry="3" style="stroke:#038048;stroke-width:1.0;"/><text fill="#000000" font-family="sans-serif" font-size="14" lengthAdjust="spacing" textLength="111" x="1195" y="104.8857">Real pontuacao</text><line style="stroke:#181818;stroke-width:0.5;" x1="1176" x2="1399" y1="112.1875" y2="112.1875"/><ellipse cx="1186" cy="125.8359" fill="#84BE84" rx="3" ry="3" style="stroke:#038048;stroke-width:1.0;"/><text fill="#000000" font-family="sans-serif" font-size="14" lengthAdjust="spacing" textLength="199" x="1195" y="129.1826">adicionarquestao( Questão )</text><ellipse cx="1186" cy="142.1328" fill="#84BE84" rx="3" ry="3" style="stroke:#038048;stroke-width:1.0;"/><text fill="#000000" font-family="sans-serif" font-size="14" lengthAdjust="spacing" textLength="126" x="1195" y="145.4795">importar( String )</text></g><!--class Grupo--><g id="elem_Grupo"><rect codeLine="59" fill="#F1F1F1" height="145.7813" id="Grupo" rx="2.5" ry="2.5" style="stroke:#181818;stroke-width:0.5;" width="265" x="1155" y="229"/><ellipse cx="1261.25" cy="245" fill="#ADD1B2" rx="11" ry="11" style="stroke:#181818;stroke-width:1.0;"/><path d="M1263.5938,240.6719 C1262.6563,240.2344 1262.0625,240.0938 1261.1875,240.0938 C1258.5625,240.0938 1256.5625,242.1719 1256.5625,244.8906 L1256.5625,246.0156 C1256.5625,248.5938 1258.6719,250.4844 1261.5625,250.4844 C1262.7813,250.4844 1263.9375,250.1875 1264.6875,249.6406 C1265.2656,249.2344 1265.5938,248.7813 1265.5938,248.3906 C1265.5938,247.9375 1265.2031,247.5469 1264.7344,247.5469 C1264.5156,247.5469 1264.3125,247.625 1264.125,247.8125 C1263.6719,248.2969 1263.6719,248.2969 1263.4844,248.3906 C1263.0625,248.6563 1262.375,248.7813 1261.6094,248.7813 C1259.5625,248.7813 1258.2656,247.6875 1258.2656,245.9844 L1258.2656,244.8906 C1258.2656,243.1094 1259.5156,241.7969 1261.25,241.7969 C1261.8281,241.7969 1262.4375,241.9531 1262.9063,242.2031 C1263.3906,242.4844 1263.5625,242.7031 1263.6563,243.1094 C1263.7188,243.5156 1263.75,243.6406 1263.8906,243.7656 C1264.0313,243.9063 1264.2656,244.0156 1264.4844,244.0156 C1264.75,244.0156 1265.0156,243.875 1265.1875,243.6563 C1265.2969,243.5 1265.3281,243.3125 1265.3281,242.8906 L1265.3281,241.4688 C1265.3281,241.0313 1265.3125,240.9063 1265.2188,240.75 C1265.0625,240.4844 1264.7813,240.3438 1264.4844,240.3438 C1264.1875,240.3438 1263.9844,240.4375 1263.7656,240.75 L1263.5938,240.6719 Z " fill="#000000"/><text fill="#000000" font-family="sans-serif" font-size="14" lengthAdjust="spacing" textLength="44" x="1281.75" y="249.8467">Grupo</text><line style="stroke:#181818;stroke-width:0.5;" x1="1156" x2="1419" y1="261" y2="261"/><ellipse cx="1166" cy="274.6484" fill="none" rx="3" ry="3" style="stroke:#038048;stroke-width:1.0;"/><text fill="#000000" font-family="sans-serif" font-size="14" lengthAdjust="spacing" textLength="82" x="1175" y="277.9951">Tema tema</text><ellipse cx="1166" cy="290.9453" fill="none" rx="3" ry="3" style="stroke:#038048;stroke-width:1.0;"/><text fill="#000000" font-family="sans-serif" font-size="14" lengthAdjust="spacing" textLength="78" x="1175" y="294.292">String tipo</text><ellipse cx="1166" cy="307.2422" fill="none" rx="3" ry="3" style="stroke:#038048;stroke-width:1.0;"/><text fill="#000000" font-family="sans-serif" font-size="14" lengthAdjust="spacing" textLength="162" x="1175" y="310.5889">Dificuldade dificuldade</text><ellipse cx="1166" cy="323.5391" fill="none" rx="3" ry="3" style="stroke:#038048;stroke-width:1.0;"/><text fill="#000000" font-family="sans-serif" font-size="14" lengthAdjust="spacing" textLength="234" x="1175" y="326.8857">Inteiro minperguntasaresponder</text><ellipse cx="1166" cy="339.8359" fill="none" rx="3" ry="3" style="stroke:#038048;stroke-width:1.0;"/><text fill="#000000" font-family="sans-serif" font-size="14" lengthAdjust="spacing" textLength="227" x="1175" y="343.1826">Inteiro nrperguntasaapresentar</text><line style="stroke:#181818;stroke-width:0.5;" x1="1156" x2="1419" y1="350.4844" y2="350.4844"/><ellipse cx="1166" cy="364.1328" fill="#84BE84" rx="3" ry="3" style="stroke:#038048;stroke-width:1.0;"/><text fill="#000000" font-family="sans-serif" font-size="14" lengthAdjust="spacing" textLength="239" x="1175" y="367.4795">adicionarquestoes( Questionario )</text></g><!--class Lista< T >--><g id="elem_Lista&lt; T &gt;"><rect codeLine="69" fill="#F1F1F1" height="64.2969" id="Lista&lt; T &gt;" rx="2.5" ry="2.5" style="stroke:#181818;stroke-width:0.5;" width="129" x="1455" y="270"/><ellipse cx="1480.8" cy="286" fill="#ADD1B2" rx="11" ry="11" style="stroke:#181818;stroke-width:1.0;"/><path d="M1483.1438,281.6719 C1482.2063,281.2344 1481.6125,281.0938 1480.7375,281.0938 C1478.1125,281.0938 1476.1125,283.1719 1476.1125,285.8906 L1476.1125,287.0156 C1476.1125,289.5938 1478.2219,291.4844 1481.1125,291.4844 C1482.3313,291.4844 1483.4875,291.1875 1484.2375,290.6406 C1484.8156,290.2344 1485.1438,289.7813 1485.1438,289.3906 C1485.1438,288.9375 1484.7531,288.5469 1484.2844,288.5469 C1484.0656,288.5469 1483.8625,288.625 1483.675,288.8125 C1483.2219,289.2969 1483.2219,289.2969 1483.0344,289.3906 C1482.6125,289.6563 1481.925,289.7813 1481.1594,289.7813 C1479.1125,289.7813 1477.8156,288.6875 1477.8156,286.9844 L1477.8156,285.8906 C1477.8156,284.1094 1479.0656,282.7969 1480.8,282.7969 C1481.3781,282.7969 1481.9875,282.9531 1482.4563,283.2031 C1482.9406,283.4844 1483.1125,283.7031 1483.2063,284.1094 C1483.2688,284.5156 1483.3,284.6406 1483.4406,284.7656 C1483.5813,284.9063 1483.8156,285.0156 1484.0344,285.0156 C1484.3,285.0156 1484.5656,284.875 1484.7375,284.6563 C1484.8469,284.5 1484.8781,284.3125 1484.8781,283.8906 L1484.8781,282.4688 C1484.8781,282.0313 1484.8625,281.9063 1484.7688,281.75 C1484.6125,281.4844 1484.3313,281.3438 1484.0344,281.3438 C1483.7375,281.3438 1483.5344,281.4375 1483.3156,281.75 L1483.1438,281.6719 Z " fill="#000000"/><text fill="#000000" font-family="sans-serif" font-size="14" lengthAdjust="spacing" textLength="73" x="1497.2" y="290.8467">Lista&lt; T &gt;</text><line style="stroke:#181818;stroke-width:0.5;" x1="1456" x2="1583" y1="302" y2="302"/><line style="stroke:#181818;stroke-width:0.5;" x1="1456" x2="1583" y1="310" y2="310"/><ellipse cx="1466" cy="323.6484" fill="#84BE84" rx="3" ry="3" style="stroke:#038048;stroke-width:1.0;"/><text fill="#000000" font-family="sans-serif" font-size="14" lengthAdjust="spacing" textLength="103" x="1475" y="326.9951">void baralhar()</text></g><!--class Tema--><g id="elem_Tema"><rect codeLine="85" fill="#F1F1F1" height="48" id="Tema" rx="2.5" ry="2.5" style="stroke:#181818;stroke-width:0.5;" width="72" x="1378.5" y="475.5"/><ellipse cx="1393.5" cy="491.5" fill="#ADD1B2" rx="11" ry="11" style="stroke:#181818;stroke-width:1.0;"/><path d="M1395.8438,487.1719 C1394.9063,486.7344 1394.3125,486.5938 1393.4375,486.5938 C1390.8125,486.5938 1388.8125,488.6719 1388.8125,491.3906 L1388.8125,492.5156 C1388.8125,495.0938 1390.9219,496.9844 1393.8125,496.9844 C1395.0313,496.9844 1396.1875,496.6875 1396.9375,496.1406 C1397.5156,495.7344 1397.8438,495.2813 1397.8438,494.8906 C1397.8438,494.4375 1397.4531,494.0469 1396.9844,494.0469 C1396.7656,494.0469 1396.5625,494.125 1396.375,494.3125 C1395.9219,494.7969 1395.9219,494.7969 1395.7344,494.8906 C1395.3125,495.1563 1394.625,495.2813 1393.8594,495.2813 C1391.8125,495.2813 1390.5156,494.1875 1390.5156,492.4844 L1390.5156,491.3906 C1390.5156,489.6094 1391.7656,488.2969 1393.5,488.2969 C1394.0781,488.2969 1394.6875,488.4531 1395.1563,488.7031 C1395.6406,488.9844 1395.8125,489.2031 1395.9063,489.6094 C1395.9688,490.0156 1396,490.1406 1396.1406,490.2656 C1396.2813,490.4063 1396.5156,490.5156 1396.7344,490.5156 C1397,490.5156 1397.2656,490.375 1397.4375,490.1563 C1397.5469,490 1397.5781,489.8125 1397.5781,489.3906 L1397.5781,487.9688 C1397.5781,487.5313 1397.5625,487.4063 1397.4688,487.25 C1397.3125,486.9844 1397.0313,486.8438 1396.7344,486.8438 C1396.4375,486.8438 1396.2344,486.9375 1396.0156,487.25 L1395.8438,487.1719 Z " fill="#000000"/><text fill="#000000" font-family="sans-serif" font-size="14" lengthAdjust="spacing" textLength="40" x="1407.5" y="496.3467">Tema</text><line style="stroke:#181818;stroke-width:0.5;" x1="1379.5" x2="1449.5" y1="507.5" y2="507.5"/><line style="stroke:#181818;stroke-width:0.5;" x1="1379.5" x2="1449.5" y1="515.5" y2="515.5"/></g><!--class Dificuldade--><g id="elem_Dificuldade"><rect codeLine="86" fill="#F1F1F1" height="96.8906" id="Dificuldade" rx="2.5" ry="2.5" style="stroke:#181818;stroke-width:0.5;" width="112" x="1231.5" y="451"/><ellipse cx="1246.5" cy="467" fill="#EB937F" rx="11" ry="11" style="stroke:#181818;stroke-width:1.0;"/><path d="M1245.2969,467.875 L1246.75,467.875 L1246.75,467.9844 C1246.75,468.3906 1246.7813,468.5469 1246.8594,468.7031 C1247.0156,468.9531 1247.2969,469.1094 1247.5938,469.1094 C1247.8438,469.1094 1248.1094,468.9688 1248.2656,468.75 C1248.3906,468.5938 1248.4219,468.4375 1248.4219,467.9844 L1248.4219,466.0625 C1248.4219,465.9063 1248.4219,465.8594 1248.4063,465.7031 C1248.3438,465.2344 1248.0313,464.9219 1247.5781,464.9219 C1247.3281,464.9219 1247.0625,465.0625 1246.8906,465.2813 C1246.7813,465.4531 1246.75,465.6094 1246.75,466.0625 L1246.75,466.1875 L1245.2969,466.1875 L1245.2969,463.7813 L1249.2813,463.7813 L1249.2813,464.6406 C1249.2813,465.0469 1249.3125,465.2188 1249.3906,465.375 C1249.5625,465.625 1249.8438,465.7813 1250.125,465.7813 C1250.3906,465.7813 1250.6563,465.6406 1250.8281,465.4219 C1250.9375,465.25 1250.9688,465.1094 1250.9688,464.6406 L1250.9688,462.0938 L1243.3438,462.0938 C1242.9063,462.0938 1242.7813,462.1094 1242.625,462.2031 C1242.375,462.3594 1242.2188,462.6563 1242.2188,462.9375 C1242.2188,463.2188 1242.3594,463.4688 1242.5781,463.6406 C1242.7344,463.75 1242.9219,463.7813 1243.3438,463.7813 L1243.5938,463.7813 L1243.5938,470.2969 L1243.3438,470.2969 C1242.9375,470.2969 1242.7813,470.3125 1242.625,470.4219 C1242.375,470.5938 1242.2188,470.8594 1242.2188,471.1563 C1242.2188,471.4219 1242.3594,471.6719 1242.5781,471.8281 C1242.7188,471.9531 1242.9531,472 1243.3438,472 L1251.3438,472 L1251.3438,469.4219 C1251.3438,468.9844 1251.3125,468.8438 1251.2344,468.6875 C1251.0625,468.4375 1250.7813,468.2813 1250.5,468.2813 C1250.2344,468.2813 1249.9688,468.3906 1249.7969,468.6406 C1249.6875,468.7969 1249.6563,468.9375 1249.6563,469.4219 L1249.6563,470.2969 L1245.2969,470.2969 L1245.2969,467.875 Z " fill="#000000"/><text fill="#000000" font-family="sans-serif" font-size="14" lengthAdjust="spacing" textLength="80" x="1260.5" y="471.8467">Dificuldade</text><line style="stroke:#181818;stroke-width:0.5;" x1="1232.5" x2="1342.5" y1="483" y2="483"/><text fill="#000000" font-family="sans-serif" font-size="14" lengthAdjust="spacing" textLength="40" x="1237.5" y="499.9951">FACIL</text><text fill="#000000" font-family="sans-serif" font-size="14" lengthAdjust="spacing" textLength="47" x="1237.5" y="516.292">MEDIO</text><text fill="#000000" font-family="sans-serif" font-size="14" lengthAdjust="spacing" textLength="49" x="1237.5" y="532.5889">DIFICIL</text><line style="stroke:#181818;stroke-width:0.5;" x1="1232.5" x2="1342.5" y1="539.8906" y2="539.8906"/></g><!--reverse link Questao to Questao:EscolhaMultipla--><g id="link_Questao_Questao:EscolhaMultipla"><path codeLine="26" d="M1023.29,407.071 C1042.78,432.819 1061.83,457.98 1074.99,475.368 " fill="none" id="Questao-backto-Questao:EscolhaMultipla" style="stroke:#181818;stroke-width:1.0;"/><polygon fill="none" points="1017.63,411.199,1011.14,391.027,1028.79,402.748,1017.63,411.199" style="stroke:#181818;stroke-width:1.0;"/></g><!--reverse link Questao to Questao:VerdadeiroFalso--><g id="link_Questao_Questao:VerdadeiroFalso"><path codeLine="27" d="M808.739,324.568 C664.822,348.997 431.676,393.064 235.5,451 C212.558,457.775 187.851,466.934 166.642,475.402 " fill="none" id="Questao-backto-Questao:VerdadeiroFalso" style="stroke:#181818;stroke-width:1.0;"/><polygon fill="none" points="807.991,317.595,828.875,321.179,810.314,331.401,807.991,317.595" style="stroke:#181818;stroke-width:1.0;"/></g><!--reverse link Questao to Questao:CurtaTextual--><g id="link_Questao_Questao:CurtaTextual"><path codeLine="28" d="M809.331,340.125 C711.34,368.035 576.117,408.61 459.5,451 C439.352,458.324 417.574,467.307 398.627,475.482 " fill="none" id="Questao-backto-Questao:CurtaTextual" style="stroke:#181818;stroke-width:1.0;"/><polygon fill="none" points="807.575,333.347,828.725,334.628,811.392,346.816,807.575,333.347" style="stroke:#181818;stroke-width:1.0;"/></g><!--reverse link Questao to Questao:LongaTextual--><g id="link_Questao_Questao:LongaTextual"><path codeLine="29" d="M811.877,385.311 C770.81,410.798 727.429,437.722 693.283,458.914 " fill="none" id="Questao-backto-Questao:LongaTextual" style="stroke:#181818;stroke-width:1.0;"/><polygon fill="none" points="808.31,379.286,828.994,374.687,815.692,391.181,808.31,379.286" style="stroke:#181818;stroke-width:1.0;"/></g><!--reverse link Resposta to Resposta:EscolhaMultipla--><g id="link_Resposta_Resposta:EscolhaMultipla"><path codeLine="44" d="M815.614,540.755 C810.228,543.346 804.818,545.795 799.5,548 C739.01,573.0821 668.382,593.6115 612.327,607.9784 " fill="none" id="Resposta-backto-Resposta:EscolhaMultipla" style="stroke:#181818;stroke-width:1.0;"/><polygon fill="none" points="812.666,534.401,833.663,531.551,819.026,546.873,812.666,534.401" style="stroke:#181818;stroke-width:1.0;"/></g><!--reverse link Resposta to Resposta:VerdadeiroFalso--><g id="link_Resposta_Resposta:VerdadeiroFalso"><path codeLine="45" d="M842.807,546.545 C823.603,567.2569 801.771,590.8031 786.046,607.7621 " fill="none" id="Resposta-backto-Resposta:VerdadeiroFalso" style="stroke:#181818;stroke-width:1.0;"/><polygon fill="none" points="837.786,541.665,856.517,531.758,848.052,551.183,837.786,541.665" style="stroke:#181818;stroke-width:1.0;"/></g><!--reverse link Resposta to Resposta:CurtaTextual--><g id="link_Resposta_Resposta:CurtaTextual"><path codeLine="46" d="M928.546,546.545 C947.909,567.2569 969.921,590.8031 985.776,607.7621 " fill="none" id="Resposta-backto-Resposta:CurtaTextual" style="stroke:#181818;stroke-width:1.0;"/><polygon fill="none" points="923.267,551.148,914.722,531.758,933.494,541.588,923.267,551.148" style="stroke:#181818;stroke-width:1.0;"/></g><!--reverse link Resposta to Resposta:LongaTextual--><g id="link_Resposta_Resposta:LongaTextual"><path codeLine="47" d="M955.92,540.886 C961.134,543.414 966.363,545.816 971.5,548 C1029.19,572.5219 1096.59,593.3051 1149.49,607.9412 " fill="none" id="Resposta-backto-Resposta:LongaTextual" style="stroke:#181818;stroke-width:1.0;"/><polygon fill="none" points="952.477,546.987,937.863,531.643,958.856,534.525,952.477,546.987" style="stroke:#181818;stroke-width:1.0;"/></g><!--reverse link Questao to Tema--><g id="link_Questao_Tema"><path codeLine="98" d="M1071.99,364.693 C1093.61,374.12 1116.01,383.27 1137.5,391 C1234.08,425.742 1270.04,402.503 1360.5,451 C1372.27,457.313 1383.64,466.647 1392.88,475.373 " fill="none" id="Questao-backto-Tema" style="stroke:#181818;stroke-width:1.0;"/><polygon fill="none" points="1060.08,359.435,1063.9505,365.5193,1071.0555,364.2866,1067.185,358.2023,1060.08,359.435" style="stroke:#181818;stroke-width:1.0;"/></g><!--reverse link Questao to Dificuldade--><g id="link_Questao_Dificuldade"><path codeLine="99" d="M1071.66,370.666 C1116.82,395.302 1167.78,423.792 1213.5,451 C1219.27,454.435 1225.25,458.093 1231.18,461.795 " fill="none" id="Questao-backto-Dificuldade" style="stroke:#181818;stroke-width:1.0;"/><polygon fill="none" points="1060,364.323,1063.3642,370.7013,1070.5457,370.0491,1067.1815,363.6708,1060,364.323" style="stroke:#181818;stroke-width:1.0;"/></g><!--reverse link Grupo to Tema--><g id="link_Grupo_Tema"><path codeLine="101" d="M1341.76,386.527 C1362.69,418.749 1384.99,453.078 1399.3,475.103 " fill="none" id="Grupo-backto-Tema" style="stroke:#181818;stroke-width:1.0;"/><polygon fill="none" points="1334.43,375.242,1334.3445,382.4526,1340.9675,385.3048,1341.053,378.0942,1334.43,375.242" style="stroke:#181818;stroke-width:1.0;"/></g><!--reverse link Grupo to Dificuldade--><g id="link_Grupo_Dificuldade"><path codeLine="102" d="M1287.5,388.432 C1287.5,409.843 1287.5,432.055 1287.5,450.871 " fill="none" id="Grupo-backto-Dificuldade" style="stroke:#181818;stroke-width:1.0;"/><polygon fill="none" points="1287.5,375.242,1283.5,381.242,1287.5,387.242,1291.5,381.242,1287.5,375.242" style="stroke:#181818;stroke-width:1.0;"/></g><!--reverse link Questionario to Lista< T >--><g id="link_Questionario_Lista&lt; T &gt;"><path codeLine="104" d="M1382.47,162.035 C1401.02,178.572 1420.1,196.092 1437.5,213 C1456.22,231.193 1476.21,252.6 1491.76,269.745 " fill="none" id="Questionario-backto-Lista&lt; T &gt;" style="stroke:#181818;stroke-width:1.0;"/><polygon fill="none" points="1372.53,153.224,1374.3699,160.1964,1381.5136,161.1798,1379.6737,154.2074,1372.53,153.224" style="stroke:#181818;stroke-width:1.0;"/></g><!--reverse link Questionario to Grupo--><g id="link_Questionario_Grupo"><path codeLine="106" d="M1287.5,173.198 C1287.5,191.769 1287.5,211.034 1287.5,228.802 " fill="none" id="Questionario-backto-Grupo" style="stroke:#181818;stroke-width:1.0;"/><polygon fill="none" points="1280.5,173.036,1287.5,153.036,1294.5,173.036,1280.5,173.036" style="stroke:#181818;stroke-width:1.0;"/></g><!--reverse link Questionario to Questao--><g id="link_Questionario_Questao"><path codeLine="107" d="M1163.82,160.33 C1129.96,182.049 1093.39,205.502 1060,226.916 " fill="none" id="Questionario-backto-Questao" style="stroke:#181818;stroke-width:1.0;"/><polygon fill="none" points="1175.19,153.036,1167.9801,152.9063,1165.0873,159.5118,1172.2972,159.6414,1175.19,153.036" style="stroke:#181818;stroke-width:1.0;"/></g><!--reverse link Questao to Resposta--><g id="link_Questao_Resposta"><path codeLine="108" d="M914.176,403.482 C907.199,426.599 900.284,449.513 894.993,467.045 " fill="none" id="Questao-backto-Resposta" style="stroke:#181818;stroke-width:1.0;"/><polygon fill="none" points="917.934,391.027,912.3707,395.615,914.466,402.5149,920.0293,397.927,917.934,391.027" style="stroke:#181818;stroke-width:1.0;"/></g><!--SRC=[ZLJRRjim37ttLx1vIOekFp0K1hQc6G8as2tOEskhcG17SdGPYcNxcdtAVcoKBCitkLY010nvHFBmXa_QA2mC51Lg3PyjqmObN3EWpnryOkfaXK6eWn3qHtP6CFGJ_c_uCoziLMB9eEpaOFt2i89Q2cEnG1cKUqwHxiccQqaIvA22g0DY9mpZIheujJpZ2p-tRxyQnSK93Azb355hxqQnu8NYO_OxonfYYy3ixQCkPFKT3xQYrnKkYEeKz8qfbpu5tsAbPHhqO9N18tiXLbKQiPVYr4UuLDUl4GU1dkxDJS2EIjUpKxIsMVU_rkjvWZEmCSKPs83a36P0Cyio7CvK97fDZqDNjnQPQ18aKDCkfL2ZDgKWepuvI4oweJgRsInmKjyvuB32SwXHZNlRogL0nRkL3UFLjYg7YvCa6szLQPKVgVbbWsI_80jgB7dXWr-QKAicvjy_4cu3X9ClOgTMxSRUTjt-e6pTPJq-ADCDV_t4jEcVkMXFbKQ_Lw9aQWGIgiDWJIX6eahpeiAjXeNkSLY4OXyXNqGgFoGluGaLqfoebKSlbylcWRH6IKrGqeHeCVw12Ji9zL-uDv5Pya6l-j5wiaZpgUBb6JkSlg2TXbKgK6FmGpBHlfUoOYW2tdrTDM2zplCSD8F25ycVjMVy2IvVNigk1O0NovTPk2H-IDnw0fNWF9Y8QpEistSFkxsN3e-RtKSlRNRRdTTIQ8YT20IzjwZq98Qgbl1G6tWrjoAUHKahwt8SA7fPPbapz17N_Urp2GxR8N3c_g2DpFvGU4VJPo6FGJxjIVa7]--></g></svg>