<?xml version="1.0" encoding="UTF-8" standalone="no"?><svg xmlns="http://www.w3.org/2000/svg" xmlns:xlink="http://www.w3.org/1999/xlink" contentStyleType="text/css" height="711px" preserveAspectRatio="none" style="width:1478px;height:711px;background:#FFFFFF;" version="1.1" viewBox="0 0 1478 711" width="1478px" zoomAndPan="magnify"><defs/><g><!--class Questao--><g id="elem_Questao"><rect codeLine="1" fill="#F1F1F1" height="178.375" id="Questao" rx="2.5" ry="2.5" style="stroke:#181818;stroke-width:0.5;" width="231" x="716" y="213"/><ellipse cx="797.75" cy="229" fill="#A9DCDF" rx="11" ry="11" style="stroke:#181818;stroke-width:1.0;"/><path d="M799.8281,230.8125 L800.2188,231.7969 L799.8281,231.7969 C799.375,231.7969 799.2656,231.8125 799.1094,231.9219 C798.8594,232.0781 798.7031,232.3594 798.7031,232.6563 C798.7031,232.9219 798.8438,233.1719 799.0625,233.3281 C799.2031,233.4531 799.4063,233.5 799.8281,233.5 L802.1875,233.5 C802.5469,233.5 802.7656,233.4688 802.9063,233.375 C803.1563,233.2344 803.3125,232.9375 803.3125,232.6563 C803.3125,232.375 803.1719,232.125 802.9531,231.9688 C802.7813,231.8281 802.625,231.7969 802.1563,231.7969 L798.7656,223.5938 L795.0938,223.5938 C794.6406,223.5938 794.5156,223.6094 794.3594,223.7031 C794.1094,223.875 793.9531,224.1563 793.9531,224.4375 C793.9531,224.7188 794.0938,224.9688 794.3125,225.1406 C794.4844,225.25 794.6563,225.2813 795.0938,225.2813 L796.1719,225.2813 L793.5313,231.7969 C793.1094,231.7969 792.9531,231.8125 792.7969,231.9219 C792.5469,232.0781 792.3906,232.3594 792.3906,232.6563 C792.3906,233.2188 792.7656,233.5 793.5156,233.5 L795.7813,233.5 C796.1406,233.5 796.3594,233.4688 796.4844,233.375 C796.75,233.2344 796.8906,232.9375 796.8906,232.6563 C796.8906,232.375 796.7656,232.125 796.5469,231.9531 C796.375,231.8281 796.2344,231.7969 795.7813,231.7969 L795.3906,231.7969 L795.7813,230.8125 L799.8281,230.8125 Z M799.125,229.1094 L796.4531,229.1094 L797.7969,225.8438 L799.125,229.1094 Z " fill="#000000"/><text fill="#000000" font-family="sans-serif" font-size="14" font-style="italic" lengthAdjust="spacing" textLength="59" x="818.25" y="233.8467">Questao</text><line style="stroke:#181818;stroke-width:0.5;" x1="717" x2="946" y1="245" y2="245"/><ellipse cx="727" cy="258.6484" fill="none" rx="3" ry="3" style="stroke:#038048;stroke-width:1.0;"/><text fill="#000000" font-family="sans-serif" font-size="14" lengthAdjust="spacing" textLength="135" x="736" y="261.9951">Pergunta pergunta</text><ellipse cx="727" cy="274.9453" fill="none" rx="3" ry="3" style="stroke:#038048;stroke-width:1.0;"/><text fill="#000000" font-family="sans-serif" font-size="14" lengthAdjust="spacing" textLength="82" x="736" y="278.292">Tema tema</text><ellipse cx="727" cy="291.2422" fill="none" rx="3" ry="3" style="stroke:#038048;stroke-width:1.0;"/><text fill="#000000" font-family="sans-serif" font-size="14" lengthAdjust="spacing" textLength="162" x="736" y="294.5889">Dificuldade dificuldade</text><ellipse cx="727" cy="307.5391" fill="none" rx="3" ry="3" style="stroke:#038048;stroke-width:1.0;"/><text fill="#000000" font-family="sans-serif" font-size="14" lengthAdjust="spacing" textLength="111" x="736" y="310.8857">Real pontuacao</text><ellipse cx="727" cy="323.8359" fill="none" rx="3" ry="3" style="stroke:#038048;stroke-width:1.0;"/><text fill="#000000" font-family="sans-serif" font-size="14" lengthAdjust="spacing" textLength="205" x="736" y="327.1826">Lista&lt; Resposta &gt; respostas</text><ellipse cx="727" cy="340.1328" fill="none" rx="3" ry="3" style="stroke:#038048;stroke-width:1.0;"/><text fill="#000000" font-family="sans-serif" font-size="14" lengthAdjust="spacing" textLength="158" x="736" y="343.4795">Inteiro tempomaximo</text><ellipse cx="727" cy="356.4297" fill="none" rx="3" ry="3" style="stroke:#038048;stroke-width:1.0;"/><text fill="#000000" font-family="sans-serif" font-size="14" lengthAdjust="spacing" textLength="78" x="736" y="359.7764">String tipo</text><ellipse cx="727" cy="372.7266" fill="none" rx="3" ry="3" style="stroke:#038048;stroke-width:1.0;"/><text fill="#000000" font-family="sans-serif" font-size="14" lengthAdjust="spacing" textLength="168" x="736" y="376.0732">Repsosta respostadada</text><line style="stroke:#181818;stroke-width:0.5;" x1="717" x2="946" y1="383.375" y2="383.375"/></g><!--class Questao:EscolhaMultipla--><g id="elem_Questao:EscolhaMultipla"><rect codeLine="12" fill="#F1F1F1" height="48" id="Questao:EscolhaMultipla" rx="2.5" ry="2.5" style="stroke:#181818;stroke-width:0.5;" width="207" x="876" y="475.5"/><ellipse cx="891" cy="491.5" fill="#ADD1B2" rx="11" ry="11" style="stroke:#181818;stroke-width:1.0;"/><path d="M893.3438,487.1719 C892.4063,486.7344 891.8125,486.5938 890.9375,486.5938 C888.3125,486.5938 886.3125,488.6719 886.3125,491.3906 L886.3125,492.5156 C886.3125,495.0938 888.4219,496.9844 891.3125,496.9844 C892.5313,496.9844 893.6875,496.6875 894.4375,496.1406 C895.0156,495.7344 895.3438,495.2813 895.3438,494.8906 C895.3438,494.4375 894.9531,494.0469 894.4844,494.0469 C894.2656,494.0469 894.0625,494.125 893.875,494.3125 C893.4219,494.7969 893.4219,494.7969 893.2344,494.8906 C892.8125,495.1563 892.125,495.2813 891.3594,495.2813 C889.3125,495.2813 888.0156,494.1875 888.0156,492.4844 L888.0156,491.3906 C888.0156,489.6094 889.2656,488.2969 891,488.2969 C891.5781,488.2969 892.1875,488.4531 892.6563,488.7031 C893.1406,488.9844 893.3125,489.2031 893.4063,489.6094 C893.4688,490.0156 893.5,490.1406 893.6406,490.2656 C893.7813,490.4063 894.0156,490.5156 894.2344,490.5156 C894.5,490.5156 894.7656,490.375 894.9375,490.1563 C895.0469,490 895.0781,489.8125 895.0781,489.3906 L895.0781,487.9688 C895.0781,487.5313 895.0625,487.4063 894.9688,487.25 C894.8125,486.9844 894.5313,486.8438 894.2344,486.8438 C893.9375,486.8438 893.7344,486.9375 893.5156,487.25 L893.3438,487.1719 Z " fill="#000000"/><text fill="#000000" font-family="sans-serif" font-size="14" lengthAdjust="spacing" textLength="175" x="905" y="496.3467">Questao:EscolhaMultipla</text><line style="stroke:#181818;stroke-width:0.5;" x1="877" x2="1082" y1="507.5" y2="507.5"/><line style="stroke:#181818;stroke-width:0.5;" x1="877" x2="1082" y1="515.5" y2="515.5"/></g><!--class Questao:VerdadeiroFalso--><g id="elem_Questao:VerdadeiroFalso"><rect codeLine="15" fill="#F1F1F1" height="48" id="Questao:VerdadeiroFalso" rx="2.5" ry="2.5" style="stroke:#181818;stroke-width:0.5;" width="211" x="7" y="475.5"/><ellipse cx="22" cy="491.5" fill="#ADD1B2" rx="11" ry="11" style="stroke:#181818;stroke-width:1.0;"/><path d="M24.3438,487.1719 C23.4063,486.7344 22.8125,486.5938 21.9375,486.5938 C19.3125,486.5938 17.3125,488.6719 17.3125,491.3906 L17.3125,492.5156 C17.3125,495.0938 19.4219,496.9844 22.3125,496.9844 C23.5313,496.9844 24.6875,496.6875 25.4375,496.1406 C26.0156,495.7344 26.3438,495.2813 26.3438,494.8906 C26.3438,494.4375 25.9531,494.0469 25.4844,494.0469 C25.2656,494.0469 25.0625,494.125 24.875,494.3125 C24.4219,494.7969 24.4219,494.7969 24.2344,494.8906 C23.8125,495.1563 23.125,495.2813 22.3594,495.2813 C20.3125,495.2813 19.0156,494.1875 19.0156,492.4844 L19.0156,491.3906 C19.0156,489.6094 20.2656,488.2969 22,488.2969 C22.5781,488.2969 23.1875,488.4531 23.6563,488.7031 C24.1406,488.9844 24.3125,489.2031 24.4063,489.6094 C24.4688,490.0156 24.5,490.1406 24.6406,490.2656 C24.7813,490.4063 25.0156,490.5156 25.2344,490.5156 C25.5,490.5156 25.7656,490.375 25.9375,490.1563 C26.0469,490 26.0781,489.8125 26.0781,489.3906 L26.0781,487.9688 C26.0781,487.5313 26.0625,487.4063 25.9688,487.25 C25.8125,486.9844 25.5313,486.8438 25.2344,486.8438 C24.9375,486.8438 24.7344,486.9375 24.5156,487.25 L24.3438,487.1719 Z " fill="#000000"/><text fill="#000000" font-family="sans-serif" font-size="14" lengthAdjust="spacing" textLength="179" x="36" y="496.3467">Questao:VerdadeiroFalso</text><line style="stroke:#181818;stroke-width:0.5;" x1="8" x2="217" y1="507.5" y2="507.5"/><line style="stroke:#181818;stroke-width:0.5;" x1="8" x2="217" y1="515.5" y2="515.5"/></g><!--class Questao:CurtaTextual--><g id="elem_Questao:CurtaTextual"><rect codeLine="18" fill="#F1F1F1" height="48" id="Questao:CurtaTextual" rx="2.5" ry="2.5" style="stroke:#181818;stroke-width:0.5;" width="188" x="253.5" y="475.5"/><ellipse cx="268.5" cy="491.5" fill="#ADD1B2" rx="11" ry="11" style="stroke:#181818;stroke-width:1.0;"/><path d="M270.8438,487.1719 C269.9063,486.7344 269.3125,486.5938 268.4375,486.5938 C265.8125,486.5938 263.8125,488.6719 263.8125,491.3906 L263.8125,492.5156 C263.8125,495.0938 265.9219,496.9844 268.8125,496.9844 C270.0313,496.9844 271.1875,496.6875 271.9375,496.1406 C272.5156,495.7344 272.8438,495.2813 272.8438,494.8906 C272.8438,494.4375 272.4531,494.0469 271.9844,494.0469 C271.7656,494.0469 271.5625,494.125 271.375,494.3125 C270.9219,494.7969 270.9219,494.7969 270.7344,494.8906 C270.3125,495.1563 269.625,495.2813 268.8594,495.2813 C266.8125,495.2813 265.5156,494.1875 265.5156,492.4844 L265.5156,491.3906 C265.5156,489.6094 266.7656,488.2969 268.5,488.2969 C269.0781,488.2969 269.6875,488.4531 270.1563,488.7031 C270.6406,488.9844 270.8125,489.2031 270.9063,489.6094 C270.9688,490.0156 271,490.1406 271.1406,490.2656 C271.2813,490.4063 271.5156,490.5156 271.7344,490.5156 C272,490.5156 272.2656,490.375 272.4375,490.1563 C272.5469,490 272.5781,489.8125 272.5781,489.3906 L272.5781,487.9688 C272.5781,487.5313 272.5625,487.4063 272.4688,487.25 C272.3125,486.9844 272.0313,486.8438 271.7344,486.8438 C271.4375,486.8438 271.2344,486.9375 271.0156,487.25 L270.8438,487.1719 Z " fill="#000000"/><text fill="#000000" font-family="sans-serif" font-size="14" lengthAdjust="spacing" textLength="156" x="282.5" y="496.3467">Questao:CurtaTextual</text><line style="stroke:#181818;stroke-width:0.5;" x1="254.5" x2="440.5" y1="507.5" y2="507.5"/><line style="stroke:#181818;stroke-width:0.5;" x1="254.5" x2="440.5" y1="515.5" y2="515.5"/></g><!--class Questao:LongaTextual--><g id="elem_Questao:LongaTextual"><rect codeLine="21" fill="#F1F1F1" height="48" id="Questao:LongaTextual" rx="2.5" ry="2.5" style="stroke:#181818;stroke-width:0.5;" width="192" x="476.5" y="475.5"/><ellipse cx="491.5" cy="491.5" fill="#ADD1B2" rx="11" ry="11" style="stroke:#181818;stroke-width:1.0;"/><path d="M493.8438,487.1719 C492.9063,486.7344 492.3125,486.5938 491.4375,486.5938 C488.8125,486.5938 486.8125,488.6719 486.8125,491.3906 L486.8125,492.5156 C486.8125,495.0938 488.9219,496.9844 491.8125,496.9844 C493.0313,496.9844 494.1875,496.6875 494.9375,496.1406 C495.5156,495.7344 495.8438,495.2813 495.8438,494.8906 C495.8438,494.4375 495.4531,494.0469 494.9844,494.0469 C494.7656,494.0469 494.5625,494.125 494.375,494.3125 C493.9219,494.7969 493.9219,494.7969 493.7344,494.8906 C493.3125,495.1563 492.625,495.2813 491.8594,495.2813 C489.8125,495.2813 488.5156,494.1875 488.5156,492.4844 L488.5156,491.3906 C488.5156,489.6094 489.7656,488.2969 491.5,488.2969 C492.0781,488.2969 492.6875,488.4531 493.1563,488.7031 C493.6406,488.9844 493.8125,489.2031 493.9063,489.6094 C493.9688,490.0156 494,490.1406 494.1406,490.2656 C494.2813,490.4063 494.5156,490.5156 494.7344,490.5156 C495,490.5156 495.2656,490.375 495.4375,490.1563 C495.5469,490 495.5781,489.8125 495.5781,489.3906 L495.5781,487.9688 C495.5781,487.5313 495.5625,487.4063 495.4688,487.25 C495.3125,486.9844 495.0313,486.8438 494.7344,486.8438 C494.4375,486.8438 494.2344,486.9375 494.0156,487.25 L493.8438,487.1719 Z " fill="#000000"/><text fill="#000000" font-family="sans-serif" font-size="14" lengthAdjust="spacing" textLength="160" x="505.5" y="496.3467">Questao:LongaTextual</text><line style="stroke:#181818;stroke-width:0.5;" x1="477.5" x2="667.5" y1="507.5" y2="507.5"/><line style="stroke:#181818;stroke-width:0.5;" x1="477.5" x2="667.5" y1="515.5" y2="515.5"/></g><!--class Resposta--><g id="elem_Resposta"><rect codeLine="32" fill="#F1F1F1" height="64.2969" id="Resposta" rx="2.5" ry="2.5" style="stroke:#181818;stroke-width:0.5;" width="137" x="704" y="467.5"/><ellipse cx="737" cy="483.5" fill="#A9DCDF" rx="11" ry="11" style="stroke:#181818;stroke-width:1.0;"/><path d="M739.0781,485.3125 L739.4688,486.2969 L739.0781,486.2969 C738.625,486.2969 738.5156,486.3125 738.3594,486.4219 C738.1094,486.5781 737.9531,486.8594 737.9531,487.1563 C737.9531,487.4219 738.0938,487.6719 738.3125,487.8281 C738.4531,487.9531 738.6563,488 739.0781,488 L741.4375,488 C741.7969,488 742.0156,487.9688 742.1563,487.875 C742.4063,487.7344 742.5625,487.4375 742.5625,487.1563 C742.5625,486.875 742.4219,486.625 742.2031,486.4688 C742.0313,486.3281 741.875,486.2969 741.4063,486.2969 L738.0156,478.0938 L734.3438,478.0938 C733.8906,478.0938 733.7656,478.1094 733.6094,478.2031 C733.3594,478.375 733.2031,478.6563 733.2031,478.9375 C733.2031,479.2188 733.3438,479.4688 733.5625,479.6406 C733.7344,479.75 733.9063,479.7813 734.3438,479.7813 L735.4219,479.7813 L732.7813,486.2969 C732.3594,486.2969 732.2031,486.3125 732.0469,486.4219 C731.7969,486.5781 731.6406,486.8594 731.6406,487.1563 C731.6406,487.7188 732.0156,488 732.7656,488 L735.0313,488 C735.3906,488 735.6094,487.9688 735.7344,487.875 C736,487.7344 736.1406,487.4375 736.1406,487.1563 C736.1406,486.875 736.0156,486.625 735.7969,486.4531 C735.625,486.3281 735.4844,486.2969 735.0313,486.2969 L734.6406,486.2969 L735.0313,485.3125 L739.0781,485.3125 Z M738.375,483.6094 L735.7031,483.6094 L737.0469,480.3438 L738.375,483.6094 Z " fill="#000000"/><text fill="#000000" font-family="sans-serif" font-size="14" font-style="italic" lengthAdjust="spacing" textLength="65" x="755" y="488.3467">Resposta</text><line style="stroke:#181818;stroke-width:0.5;" x1="705" x2="840" y1="499.5" y2="499.5"/><ellipse cx="715" cy="513.1484" fill="none" rx="3" ry="3" style="stroke:#038048;stroke-width:1.0;"/><text fill="#000000" font-family="sans-serif" font-size="14" lengthAdjust="spacing" textLength="111" x="724" y="516.4951">Real pontuacao</text><line style="stroke:#181818;stroke-width:0.5;" x1="705" x2="840" y1="523.7969" y2="523.7969"/></g><!--class Resposta:EscolhaMultipla--><g id="elem_Resposta:EscolhaMultipla"><rect codeLine="36" fill="#F1F1F1" height="64.2969" id="Resposta:EscolhaMultipla" rx="2.5" ry="2.5" style="stroke:#181818;stroke-width:0.5;" width="215" x="292" y="624.5"/><ellipse cx="307" cy="640.5" fill="#ADD1B2" rx="11" ry="11" style="stroke:#181818;stroke-width:1.0;"/><path d="M309.3438,636.1719 C308.4063,635.7344 307.8125,635.5938 306.9375,635.5938 C304.3125,635.5938 302.3125,637.6719 302.3125,640.3906 L302.3125,641.5156 C302.3125,644.0938 304.4219,645.9844 307.3125,645.9844 C308.5313,645.9844 309.6875,645.6875 310.4375,645.1406 C311.0156,644.7344 311.3438,644.2813 311.3438,643.8906 C311.3438,643.4375 310.9531,643.0469 310.4844,643.0469 C310.2656,643.0469 310.0625,643.125 309.875,643.3125 C309.4219,643.7969 309.4219,643.7969 309.2344,643.8906 C308.8125,644.1563 308.125,644.2813 307.3594,644.2813 C305.3125,644.2813 304.0156,643.1875 304.0156,641.4844 L304.0156,640.3906 C304.0156,638.6094 305.2656,637.2969 307,637.2969 C307.5781,637.2969 308.1875,637.4531 308.6563,637.7031 C309.1406,637.9844 309.3125,638.2031 309.4063,638.6094 C309.4688,639.0156 309.5,639.1406 309.6406,639.2656 C309.7813,639.4063 310.0156,639.5156 310.2344,639.5156 C310.5,639.5156 310.7656,639.375 310.9375,639.1563 C311.0469,639 311.0781,638.8125 311.0781,638.3906 L311.0781,636.9688 C311.0781,636.5313 311.0625,636.4063 310.9688,636.25 C310.8125,635.9844 310.5313,635.8438 310.2344,635.8438 C309.9375,635.8438 309.7344,635.9375 309.5156,636.25 L309.3438,636.1719 Z " fill="#000000"/><text fill="#000000" font-family="sans-serif" font-size="14" lengthAdjust="spacing" textLength="183" x="321" y="645.3467">Resposta:EscolhaMultipla</text><line style="stroke:#181818;stroke-width:0.5;" x1="293" x2="506" y1="656.5" y2="656.5"/><ellipse cx="303" cy="670.1484" fill="none" rx="3" ry="3" style="stroke:#038048;stroke-width:1.0;"/><text fill="#000000" font-family="sans-serif" font-size="14" lengthAdjust="spacing" textLength="111" x="312" y="673.4951">String resposta</text><line style="stroke:#181818;stroke-width:0.5;" x1="293" x2="506" y1="680.7969" y2="680.7969"/></g><!--class Resposta:VerdadeiroFalso--><g id="elem_Resposta:VerdadeiroFalso"><rect codeLine="40" fill="#F1F1F1" height="96.8906" id="Resposta:VerdadeiroFalso" rx="2.5" ry="2.5" style="stroke:#181818;stroke-width:0.5;" width="219" x="542" y="608"/><ellipse cx="557" cy="624" fill="#ADD1B2" rx="11" ry="11" style="stroke:#181818;stroke-width:1.0;"/><path d="M559.3438,619.6719 C558.4063,619.2344 557.8125,619.0938 556.9375,619.0938 C554.3125,619.0938 552.3125,621.1719 552.3125,623.8906 L552.3125,625.0156 C552.3125,627.5938 554.4219,629.4844 557.3125,629.4844 C558.5313,629.4844 559.6875,629.1875 560.4375,628.6406 C561.0156,628.2344 561.3438,627.7813 561.3438,627.3906 C561.3438,626.9375 560.9531,626.5469 560.4844,626.5469 C560.2656,626.5469 560.0625,626.625 559.875,626.8125 C559.4219,627.2969 559.4219,627.2969 559.2344,627.3906 C558.8125,627.6563 558.125,627.7813 557.3594,627.7813 C555.3125,627.7813 554.0156,626.6875 554.0156,624.9844 L554.0156,623.8906 C554.0156,622.1094 555.2656,620.7969 557,620.7969 C557.5781,620.7969 558.1875,620.9531 558.6563,621.2031 C559.1406,621.4844 559.3125,621.7031 559.4063,622.1094 C559.4688,622.5156 559.5,622.6406 559.6406,622.7656 C559.7813,622.9063 560.0156,623.0156 560.2344,623.0156 C560.5,623.0156 560.7656,622.875 560.9375,622.6563 C561.0469,622.5 561.0781,622.3125 561.0781,621.8906 L561.0781,620.4688 C561.0781,620.0313 561.0625,619.9063 560.9688,619.75 C560.8125,619.4844 560.5313,619.3438 560.2344,619.3438 C559.9375,619.3438 559.7344,619.4375 559.5156,619.75 L559.3438,619.6719 Z " fill="#000000"/><text fill="#000000" font-family="sans-serif" font-size="14" lengthAdjust="spacing" textLength="187" x="571" y="628.8467">Resposta:VerdadeiroFalso</text><line style="stroke:#181818;stroke-width:0.5;" x1="543" x2="760" y1="640" y2="640"/><ellipse cx="553" cy="653.6484" fill="none" rx="3" ry="3" style="stroke:#038048;stroke-width:1.0;"/><text fill="#000000" font-family="sans-serif" font-size="14" lengthAdjust="spacing" textLength="111" x="562" y="656.9951">String resposta</text><rect fill="none" height="6" style="stroke:#C82930;stroke-width:1.0;" width="6" x="550" y="666.9453"/><text fill="#000000" font-family="sans-serif" font-size="14" lengthAdjust="spacing" textLength="125" x="562" y="673.292">Boolean correcao</text><rect fill="none" height="6" style="stroke:#C82930;stroke-width:1.0;" width="6" x="550" y="683.2422"/><text fill="#000000" font-family="sans-serif" font-size="14" lengthAdjust="spacing" textLength="102" x="562" y="689.5889">Real desconto</text><line style="stroke:#181818;stroke-width:0.5;" x1="543" x2="760" y1="696.8906" y2="696.8906"/></g><!--class Resposta:CurtaTextual--><g id="elem_Resposta:CurtaTextual"><rect codeLine="46" fill="#F1F1F1" height="64.2969" id="Resposta:CurtaTextual" rx="2.5" ry="2.5" style="stroke:#181818;stroke-width:0.5;" width="196" x="796.5" y="624.5"/><ellipse cx="811.5" cy="640.5" fill="#ADD1B2" rx="11" ry="11" style="stroke:#181818;stroke-width:1.0;"/><path d="M813.8438,636.1719 C812.9063,635.7344 812.3125,635.5938 811.4375,635.5938 C808.8125,635.5938 806.8125,637.6719 806.8125,640.3906 L806.8125,641.5156 C806.8125,644.0938 808.9219,645.9844 811.8125,645.9844 C813.0313,645.9844 814.1875,645.6875 814.9375,645.1406 C815.5156,644.7344 815.8438,644.2813 815.8438,643.8906 C815.8438,643.4375 815.4531,643.0469 814.9844,643.0469 C814.7656,643.0469 814.5625,643.125 814.375,643.3125 C813.9219,643.7969 813.9219,643.7969 813.7344,643.8906 C813.3125,644.1563 812.625,644.2813 811.8594,644.2813 C809.8125,644.2813 808.5156,643.1875 808.5156,641.4844 L808.5156,640.3906 C808.5156,638.6094 809.7656,637.2969 811.5,637.2969 C812.0781,637.2969 812.6875,637.4531 813.1563,637.7031 C813.6406,637.9844 813.8125,638.2031 813.9063,638.6094 C813.9688,639.0156 814,639.1406 814.1406,639.2656 C814.2813,639.4063 814.5156,639.5156 814.7344,639.5156 C815,639.5156 815.2656,639.375 815.4375,639.1563 C815.5469,639 815.5781,638.8125 815.5781,638.3906 L815.5781,636.9688 C815.5781,636.5313 815.5625,636.4063 815.4688,636.25 C815.3125,635.9844 815.0313,635.8438 814.7344,635.8438 C814.4375,635.8438 814.2344,635.9375 814.0156,636.25 L813.8438,636.1719 Z " fill="#000000"/><text fill="#000000" font-family="sans-serif" font-size="14" lengthAdjust="spacing" textLength="164" x="825.5" y="645.3467">Resposta:CurtaTextual</text><line style="stroke:#181818;stroke-width:0.5;" x1="797.5" x2="991.5" y1="656.5" y2="656.5"/><rect fill="none" height="6" style="stroke:#C82930;stroke-width:1.0;" width="6" x="804.5" y="667.1484"/><text fill="#000000" font-family="sans-serif" font-size="14" lengthAdjust="spacing" textLength="111" x="816.5" y="673.4951">String resposta</text><line style="stroke:#181818;stroke-width:0.5;" x1="797.5" x2="991.5" y1="680.7969" y2="680.7969"/></g><!--class Resposta:LongaTextual--><g id="elem_Resposta:LongaTextual"><rect codeLine="50" fill="#F1F1F1" height="64.2969" id="Resposta:LongaTextual" rx="2.5" ry="2.5" style="stroke:#181818;stroke-width:0.5;" width="200" x="1027.5" y="624.5"/><ellipse cx="1042.5" cy="640.5" fill="#ADD1B2" rx="11" ry="11" style="stroke:#181818;stroke-width:1.0;"/><path d="M1044.8438,636.1719 C1043.9063,635.7344 1043.3125,635.5938 1042.4375,635.5938 C1039.8125,635.5938 1037.8125,637.6719 1037.8125,640.3906 L1037.8125,641.5156 C1037.8125,644.0938 1039.9219,645.9844 1042.8125,645.9844 C1044.0313,645.9844 1045.1875,645.6875 1045.9375,645.1406 C1046.5156,644.7344 1046.8438,644.2813 1046.8438,643.8906 C1046.8438,643.4375 1046.4531,643.0469 1045.9844,643.0469 C1045.7656,643.0469 1045.5625,643.125 1045.375,643.3125 C1044.9219,643.7969 1044.9219,643.7969 1044.7344,643.8906 C1044.3125,644.1563 1043.625,644.2813 1042.8594,644.2813 C1040.8125,644.2813 1039.5156,643.1875 1039.5156,641.4844 L1039.5156,640.3906 C1039.5156,638.6094 1040.7656,637.2969 1042.5,637.2969 C1043.0781,637.2969 1043.6875,637.4531 1044.1563,637.7031 C1044.6406,637.9844 1044.8125,638.2031 1044.9063,638.6094 C1044.9688,639.0156 1045,639.1406 1045.1406,639.2656 C1045.2813,639.4063 1045.5156,639.5156 1045.7344,639.5156 C1046,639.5156 1046.2656,639.375 1046.4375,639.1563 C1046.5469,639 1046.5781,638.8125 1046.5781,638.3906 L1046.5781,636.9688 C1046.5781,636.5313 1046.5625,636.4063 1046.4688,636.25 C1046.3125,635.9844 1046.0313,635.8438 1045.7344,635.8438 C1045.4375,635.8438 1045.2344,635.9375 1045.0156,636.25 L1044.8438,636.1719 Z " fill="#000000"/><text fill="#000000" font-family="sans-serif" font-size="14" lengthAdjust="spacing" textLength="168" x="1056.5" y="645.3467">Resposta:LongaTextual</text><line style="stroke:#181818;stroke-width:0.5;" x1="1028.5" x2="1226.5" y1="656.5" y2="656.5"/><rect fill="none" height="6" style="stroke:#C82930;stroke-width:1.0;" width="6" x="1035.5" y="667.1484"/><text fill="#000000" font-family="sans-serif" font-size="14" lengthAdjust="spacing" textLength="116" x="1047.5" y="673.4951">String userinput</text><line style="stroke:#181818;stroke-width:0.5;" x1="1028.5" x2="1226.5" y1="680.7969" y2="680.7969"/></g><!--class Questionario--><g id="elem_Questionario"><rect codeLine="59" fill="#F1F1F1" height="145.7813" id="Questionario" rx="2.5" ry="2.5" style="stroke:#181818;stroke-width:0.5;" width="225" x="1062" y="7"/><ellipse cx="1124.75" cy="23" fill="#ADD1B2" rx="11" ry="11" style="stroke:#181818;stroke-width:1.0;"/><path d="M1127.0938,18.6719 C1126.1563,18.2344 1125.5625,18.0938 1124.6875,18.0938 C1122.0625,18.0938 1120.0625,20.1719 1120.0625,22.8906 L1120.0625,24.0156 C1120.0625,26.5938 1122.1719,28.4844 1125.0625,28.4844 C1126.2813,28.4844 1127.4375,28.1875 1128.1875,27.6406 C1128.7656,27.2344 1129.0938,26.7813 1129.0938,26.3906 C1129.0938,25.9375 1128.7031,25.5469 1128.2344,25.5469 C1128.0156,25.5469 1127.8125,25.625 1127.625,25.8125 C1127.1719,26.2969 1127.1719,26.2969 1126.9844,26.3906 C1126.5625,26.6563 1125.875,26.7813 1125.1094,26.7813 C1123.0625,26.7813 1121.7656,25.6875 1121.7656,23.9844 L1121.7656,22.8906 C1121.7656,21.1094 1123.0156,19.7969 1124.75,19.7969 C1125.3281,19.7969 1125.9375,19.9531 1126.4063,20.2031 C1126.8906,20.4844 1127.0625,20.7031 1127.1563,21.1094 C1127.2188,21.5156 1127.25,21.6406 1127.3906,21.7656 C1127.5313,21.9063 1127.7656,22.0156 1127.9844,22.0156 C1128.25,22.0156 1128.5156,21.875 1128.6875,21.6563 C1128.7969,21.5 1128.8281,21.3125 1128.8281,20.8906 L1128.8281,19.4688 C1128.8281,19.0313 1128.8125,18.9063 1128.7188,18.75 C1128.5625,18.4844 1128.2813,18.3438 1127.9844,18.3438 C1127.6875,18.3438 1127.4844,18.4375 1127.2656,18.75 L1127.0938,18.6719 Z " fill="#000000"/><text fill="#000000" font-family="sans-serif" font-size="14" lengthAdjust="spacing" textLength="91" x="1145.25" y="27.8467">Questionario</text><line style="stroke:#181818;stroke-width:0.5;" x1="1063" x2="1286" y1="39" y2="39"/><ellipse cx="1073" cy="52.6484" fill="none" rx="3" ry="3" style="stroke:#038048;stroke-width:1.0;"/><text fill="#000000" font-family="sans-serif" font-size="14" lengthAdjust="spacing" textLength="192" x="1082" y="55.9951">Lista&lt; Questao &gt; questoes</text><ellipse cx="1073" cy="68.9453" fill="none" rx="3" ry="3" style="stroke:#038048;stroke-width:1.0;"/><text fill="#000000" font-family="sans-serif" font-size="14" lengthAdjust="spacing" textLength="108" x="1082" y="72.292">Inteiro duracao</text><ellipse cx="1073" cy="85.2422" fill="none" rx="3" ry="3" style="stroke:#038048;stroke-width:1.0;"/><text fill="#000000" font-family="sans-serif" font-size="14" lengthAdjust="spacing" textLength="158" x="1082" y="88.5889">Inteiro tempomaximo</text><ellipse cx="1073" cy="101.5391" fill="none" rx="3" ry="3" style="stroke:#038048;stroke-width:1.0;"/><text fill="#000000" font-family="sans-serif" font-size="14" lengthAdjust="spacing" textLength="111" x="1082" y="104.8857">Real pontuacao</text><line style="stroke:#181818;stroke-width:0.5;" x1="1063" x2="1286" y1="112.1875" y2="112.1875"/><ellipse cx="1073" cy="125.8359" fill="#84BE84" rx="3" ry="3" style="stroke:#038048;stroke-width:1.0;"/><text fill="#000000" font-family="sans-serif" font-size="14" lengthAdjust="spacing" textLength="199" x="1082" y="129.1826">adicionarquestao( Questão )</text><ellipse cx="1073" cy="142.1328" fill="#84BE84" rx="3" ry="3" style="stroke:#038048;stroke-width:1.0;"/><text fill="#000000" font-family="sans-serif" font-size="14" lengthAdjust="spacing" textLength="126" x="1082" y="145.4795">importar( String )</text></g><!--class Grupo--><g id="elem_Grupo"><rect codeLine="69" fill="#F1F1F1" height="145.7813" id="Grupo" rx="2.5" ry="2.5" style="stroke:#181818;stroke-width:0.5;" width="265" x="1042" y="229"/><ellipse cx="1148.25" cy="245" fill="#ADD1B2" rx="11" ry="11" style="stroke:#181818;stroke-width:1.0;"/><path d="M1150.5938,240.6719 C1149.6563,240.2344 1149.0625,240.0938 1148.1875,240.0938 C1145.5625,240.0938 1143.5625,242.1719 1143.5625,244.8906 L1143.5625,246.0156 C1143.5625,248.5938 1145.6719,250.4844 1148.5625,250.4844 C1149.7813,250.4844 1150.9375,250.1875 1151.6875,249.6406 C1152.2656,249.2344 1152.5938,248.7813 1152.5938,248.3906 C1152.5938,247.9375 1152.2031,247.5469 1151.7344,247.5469 C1151.5156,247.5469 1151.3125,247.625 1151.125,247.8125 C1150.6719,248.2969 1150.6719,248.2969 1150.4844,248.3906 C1150.0625,248.6563 1149.375,248.7813 1148.6094,248.7813 C1146.5625,248.7813 1145.2656,247.6875 1145.2656,245.9844 L1145.2656,244.8906 C1145.2656,243.1094 1146.5156,241.7969 1148.25,241.7969 C1148.8281,241.7969 1149.4375,241.9531 1149.9063,242.2031 C1150.3906,242.4844 1150.5625,242.7031 1150.6563,243.1094 C1150.7188,243.5156 1150.75,243.6406 1150.8906,243.7656 C1151.0313,243.9063 1151.2656,244.0156 1151.4844,244.0156 C1151.75,244.0156 1152.0156,243.875 1152.1875,243.6563 C1152.2969,243.5 1152.3281,243.3125 1152.3281,242.8906 L1152.3281,241.4688 C1152.3281,241.0313 1152.3125,240.9063 1152.2188,240.75 C1152.0625,240.4844 1151.7813,240.3438 1151.4844,240.3438 C1151.1875,240.3438 1150.9844,240.4375 1150.7656,240.75 L1150.5938,240.6719 Z " fill="#000000"/><text fill="#000000" font-family="sans-serif" font-size="14" lengthAdjust="spacing" textLength="44" x="1168.75" y="249.8467">Grupo</text><line style="stroke:#181818;stroke-width:0.5;" x1="1043" x2="1306" y1="261" y2="261"/><ellipse cx="1053" cy="274.6484" fill="none" rx="3" ry="3" style="stroke:#038048;stroke-width:1.0;"/><text fill="#000000" font-family="sans-serif" font-size="14" lengthAdjust="spacing" textLength="82" x="1062" y="277.9951">Tema tema</text><ellipse cx="1053" cy="290.9453" fill="none" rx="3" ry="3" style="stroke:#038048;stroke-width:1.0;"/><text fill="#000000" font-family="sans-serif" font-size="14" lengthAdjust="spacing" textLength="78" x="1062" y="294.292">String tipo</text><ellipse cx="1053" cy="307.2422" fill="none" rx="3" ry="3" style="stroke:#038048;stroke-width:1.0;"/><text fill="#000000" font-family="sans-serif" font-size="14" lengthAdjust="spacing" textLength="162" x="1062" y="310.5889">Dificuldade dificuldade</text><ellipse cx="1053" cy="323.5391" fill="none" rx="3" ry="3" style="stroke:#038048;stroke-width:1.0;"/><text fill="#000000" font-family="sans-serif" font-size="14" lengthAdjust="spacing" textLength="234" x="1062" y="326.8857">Inteiro minperguntasaresponder</text><ellipse cx="1053" cy="339.8359" fill="none" rx="3" ry="3" style="stroke:#038048;stroke-width:1.0;"/><text fill="#000000" font-family="sans-serif" font-size="14" lengthAdjust="spacing" textLength="227" x="1062" y="343.1826">Inteiro nrperguntasaapresentar</text><line style="stroke:#181818;stroke-width:0.5;" x1="1043" x2="1306" y1="350.4844" y2="350.4844"/><ellipse cx="1053" cy="364.1328" fill="#84BE84" rx="3" ry="3" style="stroke:#038048;stroke-width:1.0;"/><text fill="#000000" font-family="sans-serif" font-size="14" lengthAdjust="spacing" textLength="239" x="1062" y="367.4795">adicionarquestoes( Questionario )</text></g><!--class Lista< T >--><g id="elem_Lista&lt; T &gt;"><rect codeLine="79" fill="#F1F1F1" height="64.2969" id="Lista&lt; T &gt;" rx="2.5" ry="2.5" style="stroke:#181818;stroke-width:0.5;" width="129" x="1342" y="270"/><ellipse cx="1367.8" cy="286" fill="#ADD1B2" rx="11" ry="11" style="stroke:#181818;stroke-width:1.0;"/><path d="M1370.1438,281.6719 C1369.2063,281.2344 1368.6125,281.0938 1367.7375,281.0938 C1365.1125,281.0938 1363.1125,283.1719 1363.1125,285.8906 L1363.1125,287.0156 C1363.1125,289.5938 1365.2219,291.4844 1368.1125,291.4844 C1369.3313,291.4844 1370.4875,291.1875 1371.2375,290.6406 C1371.8156,290.2344 1372.1438,289.7813 1372.1438,289.3906 C1372.1438,288.9375 1371.7531,288.5469 1371.2844,288.5469 C1371.0656,288.5469 1370.8625,288.625 1370.675,288.8125 C1370.2219,289.2969 1370.2219,289.2969 1370.0344,289.3906 C1369.6125,289.6563 1368.925,289.7813 1368.1594,289.7813 C1366.1125,289.7813 1364.8156,288.6875 1364.8156,286.9844 L1364.8156,285.8906 C1364.8156,284.1094 1366.0656,282.7969 1367.8,282.7969 C1368.3781,282.7969 1368.9875,282.9531 1369.4563,283.2031 C1369.9406,283.4844 1370.1125,283.7031 1370.2063,284.1094 C1370.2688,284.5156 1370.3,284.6406 1370.4406,284.7656 C1370.5813,284.9063 1370.8156,285.0156 1371.0344,285.0156 C1371.3,285.0156 1371.5656,284.875 1371.7375,284.6563 C1371.8469,284.5 1371.8781,284.3125 1371.8781,283.8906 L1371.8781,282.4688 C1371.8781,282.0313 1371.8625,281.9063 1371.7688,281.75 C1371.6125,281.4844 1371.3313,281.3438 1371.0344,281.3438 C1370.7375,281.3438 1370.5344,281.4375 1370.3156,281.75 L1370.1438,281.6719 Z " fill="#000000"/><text fill="#000000" font-family="sans-serif" font-size="14" lengthAdjust="spacing" textLength="73" x="1384.2" y="290.8467">Lista&lt; T &gt;</text><line style="stroke:#181818;stroke-width:0.5;" x1="1343" x2="1470" y1="302" y2="302"/><line style="stroke:#181818;stroke-width:0.5;" x1="1343" x2="1470" y1="310" y2="310"/><ellipse cx="1353" cy="323.6484" fill="#84BE84" rx="3" ry="3" style="stroke:#038048;stroke-width:1.0;"/><text fill="#000000" font-family="sans-serif" font-size="14" lengthAdjust="spacing" textLength="103" x="1362" y="326.9951">void baralhar()</text></g><!--class Tema--><g id="elem_Tema"><rect codeLine="95" fill="#F1F1F1" height="48" id="Tema" rx="2.5" ry="2.5" style="stroke:#181818;stroke-width:0.5;" width="72" x="1265.5" y="475.5"/><ellipse cx="1280.5" cy="491.5" fill="#ADD1B2" rx="11" ry="11" style="stroke:#181818;stroke-width:1.0;"/><path d="M1282.8438,487.1719 C1281.9063,486.7344 1281.3125,486.5938 1280.4375,486.5938 C1277.8125,486.5938 1275.8125,488.6719 1275.8125,491.3906 L1275.8125,492.5156 C1275.8125,495.0938 1277.9219,496.9844 1280.8125,496.9844 C1282.0313,496.9844 1283.1875,496.6875 1283.9375,496.1406 C1284.5156,495.7344 1284.8438,495.2813 1284.8438,494.8906 C1284.8438,494.4375 1284.4531,494.0469 1283.9844,494.0469 C1283.7656,494.0469 1283.5625,494.125 1283.375,494.3125 C1282.9219,494.7969 1282.9219,494.7969 1282.7344,494.8906 C1282.3125,495.1563 1281.625,495.2813 1280.8594,495.2813 C1278.8125,495.2813 1277.5156,494.1875 1277.5156,492.4844 L1277.5156,491.3906 C1277.5156,489.6094 1278.7656,488.2969 1280.5,488.2969 C1281.0781,488.2969 1281.6875,488.4531 1282.1563,488.7031 C1282.6406,488.9844 1282.8125,489.2031 1282.9063,489.6094 C1282.9688,490.0156 1283,490.1406 1283.1406,490.2656 C1283.2813,490.4063 1283.5156,490.5156 1283.7344,490.5156 C1284,490.5156 1284.2656,490.375 1284.4375,490.1563 C1284.5469,490 1284.5781,489.8125 1284.5781,489.3906 L1284.5781,487.9688 C1284.5781,487.5313 1284.5625,487.4063 1284.4688,487.25 C1284.3125,486.9844 1284.0313,486.8438 1283.7344,486.8438 C1283.4375,486.8438 1283.2344,486.9375 1283.0156,487.25 L1282.8438,487.1719 Z " fill="#000000"/><text fill="#000000" font-family="sans-serif" font-size="14" lengthAdjust="spacing" textLength="40" x="1294.5" y="496.3467">Tema</text><line style="stroke:#181818;stroke-width:0.5;" x1="1266.5" x2="1336.5" y1="507.5" y2="507.5"/><line style="stroke:#181818;stroke-width:0.5;" x1="1266.5" x2="1336.5" y1="515.5" y2="515.5"/></g><!--class Dificuldade--><g id="elem_Dificuldade"><rect codeLine="96" fill="#F1F1F1" height="96.8906" id="Dificuldade" rx="2.5" ry="2.5" style="stroke:#181818;stroke-width:0.5;" width="112" x="1118.5" y="451"/><ellipse cx="1133.5" cy="467" fill="#EB937F" rx="11" ry="11" style="stroke:#181818;stroke-width:1.0;"/><path d="M1132.2969,467.875 L1133.75,467.875 L1133.75,467.9844 C1133.75,468.3906 1133.7813,468.5469 1133.8594,468.7031 C1134.0156,468.9531 1134.2969,469.1094 1134.5938,469.1094 C1134.8438,469.1094 1135.1094,468.9688 1135.2656,468.75 C1135.3906,468.5938 1135.4219,468.4375 1135.4219,467.9844 L1135.4219,466.0625 C1135.4219,465.9063 1135.4219,465.8594 1135.4063,465.7031 C1135.3438,465.2344 1135.0313,464.9219 1134.5781,464.9219 C1134.3281,464.9219 1134.0625,465.0625 1133.8906,465.2813 C1133.7813,465.4531 1133.75,465.6094 1133.75,466.0625 L1133.75,466.1875 L1132.2969,466.1875 L1132.2969,463.7813 L1136.2813,463.7813 L1136.2813,464.6406 C1136.2813,465.0469 1136.3125,465.2188 1136.3906,465.375 C1136.5625,465.625 1136.8438,465.7813 1137.125,465.7813 C1137.3906,465.7813 1137.6563,465.6406 1137.8281,465.4219 C1137.9375,465.25 1137.9688,465.1094 1137.9688,464.6406 L1137.9688,462.0938 L1130.3438,462.0938 C1129.9063,462.0938 1129.7813,462.1094 1129.625,462.2031 C1129.375,462.3594 1129.2188,462.6563 1129.2188,462.9375 C1129.2188,463.2188 1129.3594,463.4688 1129.5781,463.6406 C1129.7344,463.75 1129.9219,463.7813 1130.3438,463.7813 L1130.5938,463.7813 L1130.5938,470.2969 L1130.3438,470.2969 C1129.9375,470.2969 1129.7813,470.3125 1129.625,470.4219 C1129.375,470.5938 1129.2188,470.8594 1129.2188,471.1563 C1129.2188,471.4219 1129.3594,471.6719 1129.5781,471.8281 C1129.7188,471.9531 1129.9531,472 1130.3438,472 L1138.3438,472 L1138.3438,469.4219 C1138.3438,468.9844 1138.3125,468.8438 1138.2344,468.6875 C1138.0625,468.4375 1137.7813,468.2813 1137.5,468.2813 C1137.2344,468.2813 1136.9688,468.3906 1136.7969,468.6406 C1136.6875,468.7969 1136.6563,468.9375 1136.6563,469.4219 L1136.6563,470.2969 L1132.2969,470.2969 L1132.2969,467.875 Z " fill="#000000"/><text fill="#000000" font-family="sans-serif" font-size="14" lengthAdjust="spacing" textLength="80" x="1147.5" y="471.8467">Dificuldade</text><line style="stroke:#181818;stroke-width:0.5;" x1="1119.5" x2="1229.5" y1="483" y2="483"/><text fill="#000000" font-family="sans-serif" font-size="14" lengthAdjust="spacing" textLength="40" x="1124.5" y="499.9951">FACIL</text><text fill="#000000" font-family="sans-serif" font-size="14" lengthAdjust="spacing" textLength="47" x="1124.5" y="516.292">MEDIO</text><text fill="#000000" font-family="sans-serif" font-size="14" lengthAdjust="spacing" textLength="49" x="1124.5" y="532.5889">DIFICIL</text><line style="stroke:#181818;stroke-width:0.5;" x1="1119.5" x2="1229.5" y1="539.8906" y2="539.8906"/></g><!--reverse link Questao to Questao:EscolhaMultipla--><g id="link_Questao_Questao:EscolhaMultipla"><path codeLine="26" d="M910.285,407.071 C929.778,432.819 948.825,457.98 961.988,475.368 " fill="none" id="Questao-backto-Questao:EscolhaMultipla" style="stroke:#181818;stroke-width:1.0;"/><polygon fill="none" points="904.63,411.199,898.14,391.027,915.793,402.748,904.63,411.199" style="stroke:#181818;stroke-width:1.0;"/></g><!--reverse link Questao to Questao:VerdadeiroFalso--><g id="link_Questao_Questao:VerdadeiroFalso"><path codeLine="27" d="M696.041,331.556 C574.36,358.406 391.389,401.757 235.5,451 C213.017,458.102 188.715,467.178 167.696,475.491 " fill="none" id="Questao-backto-Questao:VerdadeiroFalso" style="stroke:#181818;stroke-width:1.0;"/><polygon fill="none" points="694.742,324.675,715.777,327.227,697.741,338.35,694.742,324.675" style="stroke:#181818;stroke-width:1.0;"/></g><!--reverse link Questao to Questao:CurtaTextual--><g id="link_Questao_Questao:CurtaTextual"><path codeLine="28" d="M697.043,355.352 C625.938,383.289 537.285,418.519 458.5,451 C439.606,458.79 419.002,467.536 400.733,475.38 " fill="none" id="Questao-backto-Questao:CurtaTextual" style="stroke:#181818;stroke-width:1.0;"/><polygon fill="none" points="694.49,348.834,715.665,348.045,699.604,361.867,694.49,348.834" style="stroke:#181818;stroke-width:1.0;"/></g><!--reverse link Questao to Questao:LongaTextual--><g id="link_Questao_Questao:LongaTextual"><path codeLine="29" d="M699.588,402.57 C663.396,429.889 627.455,457.019 603.078,475.419 " fill="none" id="Questao-backto-Questao:LongaTextual" style="stroke:#181818;stroke-width:1.0;"/><polygon fill="none" points="695.455,396.92,715.636,390.457,703.89,408.094,695.455,396.92" style="stroke:#181818;stroke-width:1.0;"/></g><!--reverse link Resposta to Resposta:EscolhaMultipla--><g id="link_Resposta_Resposta:EscolhaMultipla"><path codeLine="54" d="M700.392,540.882 C695.391,543.369 690.395,545.766 685.5,548 C616.033,579.711 595.97,581.104 524.5,608 C510.486,613.2741 495.598,618.9058 481.167,624.3802 " fill="none" id="Resposta-backto-Resposta:EscolhaMultipla" style="stroke:#181818;stroke-width:1.0;"/><polygon fill="none" points="697.362,534.568,718.345,531.615,703.784,547.009,697.362,534.568" style="stroke:#181818;stroke-width:1.0;"/></g><!--reverse link Resposta to Resposta:VerdadeiroFalso--><g id="link_Resposta_Resposta:VerdadeiroFalso"><path codeLine="55" d="M735.609,547.756 C720.7,566.855 703.522,588.86 688.593,607.9844 " fill="none" id="Resposta-backto-Resposta:VerdadeiroFalso" style="stroke:#181818;stroke-width:1.0;"/><polygon fill="none" points="730.189,543.324,748.014,531.867,741.225,551.939,730.189,543.324" style="stroke:#181818;stroke-width:1.0;"/></g><!--reverse link Resposta to Resposta:CurtaTextual--><g id="link_Resposta_Resposta:CurtaTextual"><path codeLine="56" d="M809.704,547.767 C829.298,572.662 852.778,602.492 870.057,624.445 " fill="none" id="Resposta-backto-Resposta:CurtaTextual" style="stroke:#181818;stroke-width:1.0;"/><polygon fill="none" points="804.058,551.912,797.189,531.867,815.059,543.253,804.058,551.912" style="stroke:#181818;stroke-width:1.0;"/></g><!--reverse link Resposta to Resposta:LongaTextual--><g id="link_Resposta_Resposta:LongaTextual"><path codeLine="57" d="M844.284,541.017 C849.062,543.444 853.83,545.793 858.5,548 C923.793,578.852 942.449,581.183 1009.5,608 C1022.73,613.2894 1036.78,618.9288 1050.4,624.406 " fill="none" id="Resposta-backto-Resposta:LongaTextual" style="stroke:#181818;stroke-width:1.0;"/><polygon fill="none" points="841.008,547.203,826.553,531.709,847.515,534.808,841.008,547.203" style="stroke:#181818;stroke-width:1.0;"/></g><!--reverse link Questao to Tema--><g id="link_Questao_Tema"><path codeLine="108" d="M958.992,364.693 C980.607,374.12 1003.011,383.27 1024.5,391 C1121.08,425.742 1157.04,402.503 1247.5,451 C1259.27,457.313 1270.64,466.647 1279.88,475.373 " fill="none" id="Questao-backto-Tema" style="stroke:#181818;stroke-width:1.0;"/><polygon fill="none" points="947.076,359.435,950.9502,365.517,958.0544,364.28,954.1802,358.198,947.076,359.435" style="stroke:#181818;stroke-width:1.0;"/></g><!--reverse link Questao to Dificuldade--><g id="link_Questao_Dificuldade"><path codeLine="109" d="M958.657,370.666 C1003.821,395.302 1054.78,423.792 1100.5,451 C1106.27,454.435 1112.25,458.093 1118.18,461.795 " fill="none" id="Questao-backto-Dificuldade" style="stroke:#181818;stroke-width:1.0;"/><polygon fill="none" points="947.001,364.323,950.359,370.7045,957.5412,370.0592,954.1832,363.6777,947.001,364.323" style="stroke:#181818;stroke-width:1.0;"/></g><!--reverse link Grupo to Tema--><g id="link_Grupo_Tema"><path codeLine="111" d="M1228.76,386.527 C1249.69,418.749 1271.99,453.078 1286.3,475.103 " fill="none" id="Grupo-backto-Tema" style="stroke:#181818;stroke-width:1.0;"/><polygon fill="none" points="1221.43,375.242,1221.3445,382.4526,1227.9675,385.3048,1228.053,378.0942,1221.43,375.242" style="stroke:#181818;stroke-width:1.0;"/></g><!--reverse link Grupo to Dificuldade--><g id="link_Grupo_Dificuldade"><path codeLine="112" d="M1174.5,388.432 C1174.5,409.843 1174.5,432.055 1174.5,450.871 " fill="none" id="Grupo-backto-Dificuldade" style="stroke:#181818;stroke-width:1.0;"/><polygon fill="none" points="1174.5,375.242,1170.5,381.242,1174.5,387.242,1178.5,381.242,1174.5,375.242" style="stroke:#181818;stroke-width:1.0;"/></g><!--reverse link Questionario to Lista< T >--><g id="link_Questionario_Lista&lt; T &gt;"><path codeLine="114" d="M1269.47,162.035 C1288.02,178.572 1307.1,196.092 1324.5,213 C1343.22,231.193 1363.21,252.6 1378.76,269.745 " fill="none" id="Questionario-backto-Lista&lt; T &gt;" style="stroke:#181818;stroke-width:1.0;"/><polygon fill="none" points="1259.53,153.224,1261.3699,160.1964,1268.5136,161.1798,1266.6737,154.2074,1259.53,153.224" style="stroke:#181818;stroke-width:1.0;"/></g><!--reverse link Questionario to Grupo--><g id="link_Questionario_Grupo"><path codeLine="116" d="M1174.5,173.198 C1174.5,191.769 1174.5,211.034 1174.5,228.802 " fill="none" id="Questionario-backto-Grupo" style="stroke:#181818;stroke-width:1.0;"/><polygon fill="none" points="1167.5,173.036,1174.5,153.036,1181.5,173.036,1167.5,173.036" style="stroke:#181818;stroke-width:1.0;"/></g><!--reverse link Questionario to Questao--><g id="link_Questionario_Questao"><path codeLine="117" d="M1050.82,160.33 C1016.96,182.049 980.39,205.502 947.004,226.916 " fill="none" id="Questionario-backto-Questao" style="stroke:#181818;stroke-width:1.0;"/><polygon fill="none" points="1062.19,153.036,1054.9801,152.9063,1052.0873,159.5118,1059.2972,159.6414,1062.19,153.036" style="stroke:#181818;stroke-width:1.0;"/></g><!--reverse link Questao to Resposta--><g id="link_Questao_Resposta"><path codeLine="118" d="M801.176,403.482 C794.199,426.599 787.284,449.513 781.993,467.045 " fill="none" id="Questao-backto-Resposta" style="stroke:#181818;stroke-width:1.0;"/><polygon fill="none" points="804.934,391.027,799.3707,395.615,801.466,402.5149,807.0293,397.927,804.934,391.027" style="stroke:#181818;stroke-width:1.0;"/></g><!--SRC=[ZLNRRjim37tNLx1vIRhLFp0K1hQcAG8as2tOEskhcG17SdGPYcNzcdtAVcoqBFdkeWNQCDIXo4CUiVXehCRCGbQWCV3LSMDHmOK1_Ro7BrmVdRG8PJ22_y1F29R-XEzhyIGoL-IOSyXREvn-urX0gQHrcA4ApfsWJBTqPaf55gIWWsa2OYij5rfLUKfrmcTnYh7VhHRo25QKgabH6dzDl8JI8tjXhEQr2CG-t9jC5JznxmeABd11JCUW7rnNrLFk3HP6JOFkdBPuuCz4gfX6x9GyTX7BvV9TLMto6dUGw1bVNNNmWmvsC9GrpkpsJvBC4vs13QdEm7faPp0zkemnx4kh8NkPLaNRluYS61Rq1H2xDXKy7k9SSDtZJqeL72LaIciUPPhKLUQSAf5siiY13Y34lQ72WJu6aSvm-YoThKARvjKjd-tGB70qvpbWVz9pgC6iEyj3A8bQj1iaI3rA9eLpPIa-VEIvqrxQysyV9dK3BBWn5vbFVgvJhUgS__ugk0uGGNSHExsAFRvkn_AWNTbMFTnluuNp-iQBvPzeWc5p6lHQa3dN0v3KBGPBGd4ozJGlQjogt-WEXqLezW7IHKFbbn8vFA96qebUUJGjbZf0EQkLgLTJoDRattFfHgdUXBjfc4q6TBhVd1uTaZvrimM75uuZQBV0QYfHVU15ClA6DnxmrM_L3KYID4t1SCXya_nwVSBVKDKhSjME0F3in9A5ZUP5Se4N1jI2KqyHuJ5lFjvjTzxQtw-tdxsrtcwstakfePb48EXlQvoUHDyL2VUzSNTLtlOVWg8dMzNOStIgPAmMVODhltQvX0kZ2AhZhj06ntvH-8l6OQ6ENZrnfVm7]--></g></svg>